<svg width="62" height="24" viewBox="0 0 62 24" fill="none" xmlns="http://www.w3.org/2000/svg">
<path d="M12 2L15.09 8.26L22 9.27L17 14.14L18.18 21.02L12 17.77L5.82 21.02L7 14.14L2 9.27L8.91 8.26L12 2Z" fill="#FFB23F" stroke="#FFB23F" stroke-width="1.5" stroke-linecap="round" stroke-linejoin="round"/>
<path d="M34.846 15.944V13.964L40.732 5.54H43.666V13.748H45.25V15.944H43.666V18.5H41.146V15.944H34.846ZM41.308 8.24L37.618 13.748H41.308V8.24ZM48.2584 18.626C47.8024 18.626 47.4244 18.488 47.1244 18.212C46.8364 17.924 46.6924 17.57 46.6924 17.15C46.6924 16.73 46.8364 16.382 47.1244 16.106C47.4244 15.818 47.8024 15.674 48.2584 15.674C48.7024 15.674 49.0684 15.818 49.3564 16.106C49.6444 16.382 49.7884 16.73 49.7884 17.15C49.7884 17.57 49.6444 17.924 49.3564 18.212C49.0684 18.488 48.7024 18.626 48.2584 18.626ZM51.5662 8.834C51.6262 7.634 52.0462 6.71 52.8262 6.062C53.6182 5.402 54.6562 5.072 55.9402 5.072C56.8162 5.072 57.5662 5.228 58.1902 5.54C58.8142 5.84 59.2822 6.254 59.5942 6.782C59.9182 7.298 60.0802 7.886 60.0802 8.546C60.0802 9.302 59.8822 9.944 59.4862 10.472C59.1022 10.988 58.6402 11.336 58.1002 11.516V11.588C58.7962 11.804 59.3362 12.188 59.7202 12.74C60.1162 13.292 60.3142 14 60.3142 14.864C60.3142 15.584 60.1462 16.226 59.8102 16.79C59.4862 17.354 59.0002 17.798 58.3522 18.122C57.7162 18.434 56.9482 18.59 56.0482 18.59C54.6922 18.59 53.5882 18.248 52.7362 17.564C51.8842 16.88 51.4342 15.872 51.3862 14.54H53.8342C53.8582 15.128 54.0562 15.602 54.4282 15.962C54.8122 16.31 55.3342 16.484 55.9942 16.484C56.6062 16.484 57.0742 16.316 57.3982 15.98C57.7342 15.632 57.9022 15.188 57.9022 14.648C57.9022 13.928 57.6742 13.412 57.2182 13.1C56.7622 12.788 56.0542 12.632 55.0942 12.632H54.5722V10.562H55.0942C56.7982 10.562 57.6502 9.992 57.6502 8.852C57.6502 8.336 57.4942 7.934 57.1822 7.646C56.8822 7.358 56.4442 7.214 55.8682 7.214C55.3042 7.214 54.8662 7.37 54.5542 7.682C54.2542 7.982 54.0802 8.366 54.0322 8.834H51.5662Z" fill="#090D23"/>
</svg>
