<svg width="114" height="21" viewBox="0 0 114 21" fill="none" xmlns="http://www.w3.org/2000/svg">
<path d="M-31.06 7.86C-30.3133 7.99333 -29.68 8.38667 -29.16 9.04C-28.64 9.69333 -28.38 10.4333 -28.38 11.26C-28.38 11.9667 -28.5667 12.6067 -28.94 13.18C-29.3 13.74 -29.8267 14.1867 -30.52 14.52C-31.2133 14.84 -32.02 15 -32.94 15H-38.5V1.1H-33.2C-32.2533 1.1 -31.44 1.26 -30.76 1.58C-30.08 1.9 -29.5667 2.33333 -29.22 2.88C-28.8733 3.41333 -28.7 4.01333 -28.7 4.68C-28.7 5.48 -28.9133 6.14667 -29.34 6.68C-29.7667 7.21333 -30.34 7.60667 -31.06 7.86ZM-36.22 6.94H-33.4C-32.6533 6.94 -32.0733 6.77333 -31.66 6.44C-31.2333 6.09333 -31.02 5.6 -31.02 4.96C-31.02 4.33333 -31.2333 3.84667 -31.66 3.5C-32.0733 3.14 -32.6533 2.96 -33.4 2.96H-36.22V6.94ZM-33.14 13.14C-32.3667 13.14 -31.76 12.9533 -31.32 12.58C-30.88 12.2067 -30.66 11.6867 -30.66 11.02C-30.66 10.34 -30.8933 9.8 -31.36 9.4C-31.8267 9 -32.4467 8.8 -33.22 8.8H-36.22V13.14H-33.14ZM-15.8023 9.22C-15.8023 9.63333 -15.829 10.0067 -15.8823 10.34H-24.3023C-24.2357 11.22 -23.909 11.9267 -23.3223 12.46C-22.7357 12.9933 -22.0157 13.26 -21.1623 13.26C-19.9357 13.26 -19.069 12.7467 -18.5623 11.72H-16.1023C-16.4357 12.7333 -17.0423 13.5667 -17.9223 14.22C-18.789 14.86 -19.869 15.18 -21.1623 15.18C-22.2157 15.18 -23.1623 14.9467 -24.0023 14.48C-24.829 14 -25.4823 13.3333 -25.9623 12.48C-26.429 11.6133 -26.6623 10.6133 -26.6623 9.48C-26.6623 8.34667 -26.4357 7.35333 -25.9823 6.5C-25.5157 5.63333 -24.869 4.96667 -24.0423 4.5C-23.2023 4.03333 -22.2423 3.8 -21.1623 3.8C-20.1223 3.8 -19.1957 4.02667 -18.3823 4.48C-17.569 4.93333 -16.9357 5.57333 -16.4823 6.4C-16.029 7.21333 -15.8023 8.15333 -15.8023 9.22ZM-18.1823 8.5C-18.1957 7.66 -18.4957 6.98667 -19.0823 6.48C-19.669 5.97333 -20.3957 5.72 -21.2623 5.72C-22.049 5.72 -22.7223 5.97333 -23.2823 6.48C-23.8423 6.97333 -24.1757 7.64667 -24.2823 8.5H-18.1823ZM-11.2786 5.58C-10.9453 5.02 -10.5053 4.58667 -9.95859 4.28C-9.39859 3.96 -8.73859 3.8 -7.97859 3.8V6.16H-8.55859C-9.45193 6.16 -10.1319 6.38667 -10.5986 6.84C-11.0519 7.29333 -11.2786 8.08 -11.2786 9.2V15H-13.5586V3.98H-11.2786V5.58ZM-3.60281 5.58C-3.26948 5.02 -2.82948 4.58667 -2.28281 4.28C-1.72281 3.96 -1.06281 3.8 -0.302812 3.8V6.16H-0.882812C-1.77615 6.16 -2.45615 6.38667 -2.92281 6.84C-3.37615 7.29333 -3.60281 8.08 -3.60281 9.2V15H-5.88281V3.98H-3.60281V5.58ZM11.713 3.98L4.95297 20.18H2.59297L4.83297 14.82L0.492969 3.98H3.03297L6.13297 12.38L9.35297 3.98H11.713ZM28.6889 5.1C28.3289 4.40667 27.8289 3.88667 27.1889 3.54C26.5489 3.18 25.8089 3 24.9689 3C24.0489 3 23.2289 3.20667 22.5089 3.62C21.7889 4.03333 21.2222 4.62 20.8089 5.38C20.4089 6.14 20.2089 7.02 20.2089 8.02C20.2089 9.02 20.4089 9.90667 20.8089 10.68C21.2222 11.44 21.7889 12.0267 22.5089 12.44C23.2289 12.8533 24.0489 13.06 24.9689 13.06C26.2089 13.06 27.2156 12.7133 27.9889 12.02C28.7622 11.3267 29.2356 10.3867 29.4089 9.2H24.1889V7.38H31.8489V9.16C31.7022 10.24 31.3156 11.2333 30.6889 12.14C30.0756 13.0467 29.2689 13.7733 28.2689 14.32C27.2822 14.8533 26.1822 15.12 24.9689 15.12C23.6622 15.12 22.4689 14.82 21.3889 14.22C20.3089 13.6067 19.4489 12.76 18.8089 11.68C18.1822 10.6 17.8689 9.38 17.8689 8.02C17.8689 6.66 18.1822 5.44 18.8089 4.36C19.4489 3.28 20.3089 2.44 21.3889 1.84C22.4822 1.22667 23.6756 0.919999 24.9689 0.919999C26.4489 0.919999 27.7622 1.28667 28.9089 2.02C30.0689 2.74 30.9089 3.76667 31.4289 5.1H28.6889ZM44.0777 3.98V15H41.7977V13.7C41.4377 14.1533 40.9643 14.5133 40.3777 14.78C39.8043 15.0333 39.191 15.16 38.5377 15.16C37.671 15.16 36.891 14.98 36.1977 14.62C35.5177 14.26 34.9777 13.7267 34.5777 13.02C34.191 12.3133 33.9977 11.46 33.9977 10.46V3.98H36.2577V10.12C36.2577 11.1067 36.5043 11.8667 36.9977 12.4C37.491 12.92 38.1643 13.18 39.0177 13.18C39.871 13.18 40.5443 12.92 41.0377 12.4C41.5443 11.8667 41.7977 11.1067 41.7977 10.12V3.98H44.0777ZM52.6459 3.8C53.5126 3.8 54.2859 3.98 54.9659 4.34C55.6593 4.7 56.1993 5.23333 56.5859 5.94C56.9726 6.64667 57.1659 7.5 57.1659 8.5V15H54.9059V8.84C54.9059 7.85333 54.6593 7.1 54.1659 6.58C53.6726 6.04667 52.9993 5.78 52.1459 5.78C51.2926 5.78 50.6126 6.04667 50.1059 6.58C49.6126 7.1 49.3659 7.85333 49.3659 8.84V15H47.0859V3.98H49.3659V5.24C49.7393 4.78667 50.2126 4.43333 50.7859 4.18C51.3726 3.92667 51.9926 3.8 52.6459 3.8ZM59.3142 9.44C59.3142 8.33333 59.5409 7.35333 59.9942 6.5C60.4609 5.64667 61.0876 4.98667 61.8742 4.52C62.6742 4.04 63.5542 3.8 64.5142 3.8C65.3809 3.8 66.1342 3.97333 66.7742 4.32C67.4276 4.65333 67.9476 5.07333 68.3342 5.58V3.98H70.6342V15H68.3342V13.36C67.9476 13.88 67.4209 14.3133 66.7542 14.66C66.0876 15.0067 65.3276 15.18 64.4742 15.18C63.5276 15.18 62.6609 14.94 61.8742 14.46C61.0876 13.9667 60.4609 13.2867 59.9942 12.42C59.5409 11.54 59.3142 10.5467 59.3142 9.44ZM68.3342 9.48C68.3342 8.72 68.1742 8.06 67.8542 7.5C67.5476 6.94 67.1409 6.51333 66.6342 6.22C66.1276 5.92667 65.5809 5.78 64.9942 5.78C64.4076 5.78 63.8609 5.92667 63.3542 6.22C62.8476 6.5 62.4342 6.92 62.1142 7.48C61.8076 8.02667 61.6542 8.68 61.6542 9.44C61.6542 10.2 61.8076 10.8667 62.1142 11.44C62.4342 12.0133 62.8476 12.4533 63.3542 12.76C63.8742 13.0533 64.4209 13.2 64.9942 13.2C65.5809 13.2 66.1276 13.0533 66.6342 12.76C67.1409 12.4667 67.5476 12.04 67.8542 11.48C68.1742 10.9067 68.3342 10.24 68.3342 9.48ZM88.4289 3.98L85.0089 15H82.6089L80.3889 6.86L78.1689 15H75.7689L72.3289 3.98H74.6489L76.9489 12.84L79.2889 3.98H81.6689L83.9089 12.8L86.1889 3.98H88.4289ZM89.3728 9.44C89.3728 8.33333 89.5995 7.35333 90.0528 6.5C90.5195 5.64667 91.1461 4.98667 91.9328 4.52C92.7328 4.04 93.6128 3.8 94.5728 3.8C95.4395 3.8 96.1928 3.97333 96.8328 4.32C97.4861 4.65333 98.0061 5.07333 98.3928 5.58V3.98H100.693V15H98.3928V13.36C98.0061 13.88 97.4795 14.3133 96.8128 14.66C96.1461 15.0067 95.3861 15.18 94.5328 15.18C93.5861 15.18 92.7195 14.94 91.9328 14.46C91.1461 13.9667 90.5195 13.2867 90.0528 12.42C89.5995 11.54 89.3728 10.5467 89.3728 9.44ZM98.3928 9.48C98.3928 8.72 98.2328 8.06 97.9128 7.5C97.6061 6.94 97.1995 6.51333 96.6928 6.22C96.1861 5.92667 95.6395 5.78 95.0528 5.78C94.4661 5.78 93.9195 5.92667 93.4128 6.22C92.9061 6.5 92.4928 6.92 92.1728 7.48C91.8661 8.02667 91.7128 8.68 91.7128 9.44C91.7128 10.2 91.8661 10.8667 92.1728 11.44C92.4928 12.0133 92.9061 12.4533 93.4128 12.76C93.9328 13.0533 94.4795 13.2 95.0528 13.2C95.6395 13.2 96.1861 13.0533 96.6928 12.76C97.1995 12.4667 97.6061 12.04 97.9128 11.48C98.2328 10.9067 98.3928 10.24 98.3928 9.48ZM109.248 3.8C110.114 3.8 110.888 3.98 111.568 4.34C112.261 4.7 112.801 5.23333 113.188 5.94C113.574 6.64667 113.768 7.5 113.768 8.5V15H111.508V8.84C111.508 7.85333 111.261 7.1 110.768 6.58C110.274 6.04667 109.601 5.78 108.748 5.78C107.894 5.78 107.214 6.04667 106.708 6.58C106.214 7.1 105.968 7.85333 105.968 8.84V15H103.688V3.98H105.968V5.24C106.341 4.78667 106.814 4.43333 107.388 4.18C107.974 3.92667 108.594 3.8 109.248 3.8Z" fill="#090D23"/>
</svg>
