<svg width="62" height="24" viewBox="0 0 62 24" fill="none" xmlns="http://www.w3.org/2000/svg">
<path d="M12 2L15.09 8.26L22 9.27L17 14.14L18.18 21.02L12 17.77L5.82 21.02L7 14.14L2 9.27L8.91 8.26L12 2Z" fill="#FFB23F" stroke="#FFB23F" stroke-width="1.5" stroke-linecap="round" stroke-linejoin="round"/>
<path d="M34.99 8.834C35.05 7.634 35.47 6.71 36.25 6.062C37.042 5.402 38.08 5.072 39.364 5.072C40.24 5.072 40.99 5.228 41.614 5.54C42.238 5.84 42.706 6.254 43.018 6.782C43.342 7.298 43.504 7.886 43.504 8.546C43.504 9.302 43.306 9.944 42.91 10.472C42.526 10.988 42.064 11.336 41.524 11.516V11.588C42.22 11.804 42.76 12.188 43.144 12.74C43.54 13.292 43.738 14 43.738 14.864C43.738 15.584 43.57 16.226 43.234 16.79C42.91 17.354 42.424 17.798 41.776 18.122C41.14 18.434 40.372 18.59 39.472 18.59C38.116 18.59 37.012 18.248 36.16 17.564C35.308 16.88 34.858 15.872 34.81 14.54H37.258C37.282 15.128 37.48 15.602 37.852 15.962C38.236 16.31 38.758 16.484 39.418 16.484C40.03 16.484 40.498 16.316 40.822 15.98C41.158 15.632 41.326 15.188 41.326 14.648C41.326 13.928 41.098 13.412 40.642 13.1C40.186 12.788 39.478 12.632 38.518 12.632H37.996V10.562H38.518C40.222 10.562 41.074 9.992 41.074 8.852C41.074 8.336 40.918 7.934 40.606 7.646C40.306 7.358 39.868 7.214 39.292 7.214C38.728 7.214 38.29 7.37 37.978 7.682C37.678 7.982 37.504 8.366 37.456 8.834H34.99ZM47.1334 18.626C46.6774 18.626 46.2994 18.488 45.9994 18.212C45.7114 17.924 45.5674 17.57 45.5674 17.15C45.5674 16.73 45.7114 16.382 45.9994 16.106C46.2994 15.818 46.6774 15.674 47.1334 15.674C47.5774 15.674 47.9434 15.818 48.2314 16.106C48.5194 16.382 48.6634 16.73 48.6634 17.15C48.6634 17.57 48.5194 17.924 48.2314 18.212C47.9434 18.488 47.5774 18.626 47.1334 18.626ZM59.2252 7.556H53.3932V10.634C53.6452 10.322 54.0052 10.07 54.4732 9.878C54.9412 9.674 55.4392 9.572 55.9672 9.572C56.9272 9.572 57.7132 9.782 58.3252 10.202C58.9372 10.622 59.3812 11.162 59.6572 11.822C59.9332 12.47 60.0712 13.166 60.0712 13.91C60.0712 15.29 59.6752 16.4 58.8832 17.24C58.1032 18.08 56.9872 18.5 55.5352 18.5C54.1672 18.5 53.0752 18.158 52.2592 17.474C51.4432 16.79 50.9812 15.896 50.8732 14.792H53.3212C53.4292 15.272 53.6692 15.656 54.0412 15.944C54.4252 16.232 54.9112 16.376 55.4992 16.376C56.2072 16.376 56.7412 16.154 57.1012 15.71C57.4612 15.266 57.6412 14.678 57.6412 13.946C57.6412 13.202 57.4552 12.638 57.0832 12.254C56.7232 11.858 56.1892 11.66 55.4812 11.66C54.9772 11.66 54.5572 11.786 54.2212 12.038C53.8852 12.29 53.6452 12.626 53.5012 13.046H51.0892V5.342H59.2252V7.556Z" fill="#090D23"/>
</svg>
