<svg width="132" height="78" viewBox="0 0 132 78" fill="none" xmlns="http://www.w3.org/2000/svg">
<rect x="0.566895" y="0.728271" width="130.992" height="77.0544" fill="white"/>
<path fill-rule="evenodd" clip-rule="evenodd" d="M4.41968 38.0582V43.7334L20.5729 30.3837V24.7085L4.41968 38.0582Z" fill="#04091E"/>
<path fill-rule="evenodd" clip-rule="evenodd" d="M4.41968 49.186V54.8611L20.5729 41.5114V35.8362L4.41968 49.186Z" fill="#04091E"/>
<path fill-rule="evenodd" clip-rule="evenodd" d="M11.6016 38.0582V43.7334L27.7548 30.3837V24.7085L11.6016 38.0582Z" fill="#04091E"/>
<path fill-rule="evenodd" clip-rule="evenodd" d="M11.6016 49.186V54.8611L27.7548 41.5114V35.8362L11.6016 49.186Z" fill="#04091E"/>
<path d="M46.5614 44.0625C47.5254 44.0625 48.507 43.9705 49.506 43.7865C50.5051 43.6024 51.5348 43.3264 52.5952 42.9583V36.6748L53.0159 36.3067L54.5802 36.1752V34.8475H46.7192V36.1752L48.7173 36.3067L49.1379 36.6748V42.1696C48.8049 42.1959 48.5113 42.2156 48.2572 42.2287C48.003 42.2419 47.8059 42.2485 47.6656 42.2485C45.5711 42.2485 43.9345 41.5715 42.7558 40.2175C41.5771 38.8635 40.9877 36.9859 40.9877 34.5846C40.9877 32.2447 41.5639 30.4065 42.7164 29.0701C43.8688 27.7336 45.4528 27.0654 47.4685 27.0654C47.8716 27.0654 48.2572 27.1004 48.6253 27.1705C48.9933 27.2407 49.3526 27.3502 49.7032 27.4992L50.1107 27.9856L50.6234 30.8381H52.5952V26.2635C51.5961 25.9655 50.6212 25.7421 49.6703 25.5931C48.7195 25.4441 47.7971 25.3696 46.9032 25.3696C43.9411 25.3696 41.5639 26.2087 39.7718 27.887C37.9796 29.5652 37.0835 31.7978 37.0835 34.5846C37.0835 37.3978 37.9599 39.6807 39.7126 41.4334C41.4653 43.1862 43.7483 44.0625 46.5614 44.0625ZM61.9776 43.9442C64.0809 43.9442 65.7679 43.3308 67.0386 42.1039C68.3094 40.8769 68.9447 39.2557 68.9447 37.24C68.9447 35.1104 68.3357 33.4212 67.1175 32.1724C65.8993 30.9236 64.2562 30.2992 62.1879 30.2992C60.0846 30.2992 58.3976 30.928 57.1269 32.1856C55.8562 33.4431 55.2208 35.1104 55.2208 37.1874C55.2208 39.2118 55.8408 40.8441 57.0809 42.0841C58.321 43.3242 59.9532 43.9442 61.9776 43.9442ZM62.0565 42.5245C61.0837 42.5245 60.3235 42.0469 59.7757 41.0916C59.228 40.1364 58.9541 38.7999 58.9541 37.0823C58.9541 35.3909 59.2302 34.0763 59.7823 33.1386C60.3344 32.2009 61.1012 31.732 62.0828 31.732C63.0731 31.732 63.8465 32.2097 64.403 33.1649C64.9594 34.1201 65.2377 35.4522 65.2377 37.1611C65.2377 38.8788 64.9616 40.2021 64.4095 41.1311C63.8574 42.06 63.0731 42.5245 62.0565 42.5245ZM74.7647 43.7339C75.8251 43.7339 76.7299 43.6835 77.4792 43.5827C78.2285 43.4819 78.8486 43.3264 79.3393 43.1161C80.724 42.4938 81.7778 41.6153 82.5008 40.4804C83.2238 39.3455 83.5853 37.9981 83.5853 36.4381C83.5853 34.6416 83.0902 33.1737 82.0999 32.0344C81.1096 30.8951 79.8389 30.3255 78.2877 30.3255C77.7005 30.3255 77.0871 30.4241 76.4473 30.6212C75.8076 30.8184 75.1196 31.123 74.3835 31.5349V23.8447H73.0952L69.099 25.1067V26.1583H71.0445V43.6813L74.0285 43.7339H74.7647ZM75.2379 42.301C75.0101 42.301 74.8348 42.2988 74.7121 42.2945C74.5894 42.2901 74.4799 42.2835 74.3835 42.2747V32.6391C74.734 32.569 75.0473 32.5164 75.3234 32.4813C75.5994 32.4463 75.8514 32.4288 76.0792 32.4288C77.3324 32.4288 78.2965 32.8341 78.9713 33.6447C79.6461 34.4553 79.9835 35.6187 79.9835 37.1348C79.9835 38.9051 79.6 40.2087 78.8332 41.0456C78.0664 41.8826 76.868 42.301 75.2379 42.301ZM91.2588 43.9442C93.3621 43.9442 95.0491 43.3308 96.3198 42.1039C97.5906 40.8769 98.2259 39.2557 98.2259 37.24C98.2259 35.1104 97.6169 33.4212 96.3987 32.1724C95.1806 30.9236 93.5374 30.2992 91.4691 30.2992C89.3659 30.2992 87.6788 30.928 86.4081 32.1856C85.1374 33.4431 84.502 35.1104 84.502 37.1874C84.502 39.2118 85.122 40.8441 86.3621 42.0841C87.6022 43.3242 89.2344 43.9442 91.2588 43.9442ZM91.3377 42.5245C90.3649 42.5245 89.6047 42.0469 89.0569 41.0916C88.5092 40.1364 88.2353 38.7999 88.2353 37.0823C88.2353 35.3909 88.5114 34.0763 89.0635 33.1386C89.6156 32.2009 90.3824 31.732 91.364 31.732C92.3543 31.732 93.1277 32.2097 93.6842 33.1649C94.2407 34.1201 94.5189 35.4522 94.5189 37.1611C94.5189 38.8788 94.2428 40.2021 93.6907 41.1311C93.1386 42.06 92.3543 42.5245 91.3377 42.5245ZM105.623 43.7339V42.5245L104.44 42.4193L104.072 42.0118V33.1255C104.598 32.9765 105.073 32.8626 105.498 32.7837C105.924 32.7048 106.298 32.6654 106.622 32.6654C107.464 32.6654 108.077 32.8998 108.463 33.3687C108.848 33.8375 109.041 34.5715 109.041 35.5705V42.0118L108.673 42.4193L107.516 42.5245V43.7339H114.102V42.5245L112.682 42.4193L112.328 42.0118V34.7949C112.328 33.2876 112.025 32.1658 111.421 31.4297C110.816 30.6935 109.9 30.3255 108.673 30.3255C108.121 30.3255 107.472 30.4569 106.728 30.7198C105.983 30.9827 105.098 31.399 104.072 31.9687V30.378H102.771L98.8928 31.64V32.718H100.733V42.0118L100.352 42.4193L98.9717 42.5245V43.7339H105.623ZM118.134 43.9705C118.818 43.9705 119.532 43.8303 120.277 43.5499C121.022 43.2694 121.85 42.8181 122.762 42.1959L123.117 43.7339H127.915V42.5508L126.482 42.4193L126.127 42.0381V35.071C126.127 33.3095 125.75 32.0738 124.996 31.364C124.243 30.6541 122.941 30.2992 121.092 30.2992C119.445 30.2992 118.056 30.6103 116.925 31.2325C115.794 31.8547 115.229 32.5865 115.229 33.4278C115.229 33.7696 115.328 34.0194 115.525 34.1771C115.722 34.3348 116.035 34.4137 116.465 34.4137H118.949V31.8898C119.195 31.8372 119.423 31.7978 119.633 31.7715C119.843 31.7452 120.045 31.732 120.238 31.732C121.123 31.732 121.771 31.9555 122.183 32.4025C122.595 32.8494 122.801 33.5593 122.801 34.532V35.3339C119.269 36.1314 117.021 36.8719 116.057 37.5555C115.093 38.2391 114.611 39.2118 114.611 40.4738C114.611 41.4992 114.94 42.3383 115.597 42.9912C116.255 43.6441 117.1 43.9705 118.134 43.9705ZM120.159 41.9067C119.545 41.9067 119.059 41.7248 118.7 41.3611C118.34 40.9974 118.161 40.5045 118.161 39.8823C118.161 39.0848 118.485 38.4538 119.133 37.9893C119.782 37.5248 120.991 37.0954 122.762 36.701V41.0916C122.236 41.3633 121.756 41.5671 121.322 41.7029C120.888 41.8387 120.501 41.9067 120.159 41.9067Z" fill="#04091E"/>
<path d="M40.2668 53.4258V53.1166L39.7552 53.0798L39.6338 52.9731V51.2762L41.2018 48.766L41.6619 48.6703V48.3684H40.1233V48.6703L40.5834 48.7512L40.6533 48.858L39.3872 50.8714L38.2314 48.7991L38.3087 48.7144L38.7393 48.6703V48.3684H36.9873V48.6703L37.4474 48.7439L38.9491 51.3756V52.9731L38.8277 53.0798L38.3161 53.1166V53.4258H40.2668ZM42.559 53.492C43.0694 53.492 43.4896 53.316 43.8196 52.9639C44.1497 52.6117 44.3147 52.1596 44.3147 51.6075C44.3147 51.0554 44.1503 50.6033 43.8215 50.2511C43.4927 49.899 43.0718 49.723 42.559 49.723C42.0437 49.723 41.6234 49.8984 41.2983 50.2493C40.9732 50.6002 40.8106 51.0529 40.8106 51.6075C40.8106 52.1621 40.9744 52.6148 41.302 52.9657C41.6296 53.3166 42.0486 53.492 42.559 53.492ZM42.559 53.1681C42.2473 53.1681 41.9958 53.0264 41.8044 52.743C41.613 52.4596 41.5173 52.0811 41.5173 51.6075C41.5173 51.1339 41.6124 50.7554 41.8026 50.472C41.9928 50.1886 42.2449 50.0469 42.559 50.0469C42.8731 50.0469 43.1264 50.1892 43.319 50.4738C43.5117 50.7585 43.608 51.1364 43.608 51.6075C43.608 52.0835 43.5123 52.4627 43.3209 52.7449C43.1295 53.027 42.8755 53.1681 42.559 53.1681ZM46.0841 53.4994C46.2633 53.4994 46.4528 53.4589 46.6528 53.3779C46.8528 53.297 47.0706 53.1718 47.3061 53.0025V53.4258H48.4214V53.1534L48.0681 53.1166L47.9319 52.9951V49.723H47.6448L46.7688 50.0027V50.2383H47.3061V52.7927C47.1491 52.8688 46.9988 52.9252 46.8553 52.962C46.7117 52.9988 46.57 53.0172 46.4301 53.0172C46.1798 53.0172 45.9958 52.9528 45.878 52.824C45.7602 52.6952 45.7013 52.4933 45.7013 52.2185V49.723H45.4142L44.5382 50.0027V50.2383H45.0756V52.3473C45.0756 52.7203 45.1621 53.0056 45.3351 53.2031C45.5081 53.4006 45.7578 53.4994 46.0841 53.4994ZM50.4228 53.4258V53.1534L49.8964 53.1166L49.7676 52.9951V50.8419C49.9271 50.653 50.0737 50.5137 50.2074 50.4241C50.3412 50.3346 50.4682 50.2898 50.5884 50.2898C50.6669 50.2898 50.7387 50.3051 50.8037 50.3358C50.8687 50.3665 50.9258 50.4113 50.9749 50.4702H51.2141V49.8223C51.1356 49.788 51.0595 49.7628 50.9859 49.7469C50.9123 49.7309 50.8375 49.723 50.7614 49.723C50.7099 49.723 50.6712 49.7242 50.6454 49.7266C50.6197 49.7291 50.5958 49.734 50.5737 49.7414C50.4264 49.8591 50.286 49.9788 50.1522 50.1002C50.0185 50.2217 49.8903 50.345 49.7676 50.4702V49.7634H49.4805L48.6045 50.0321V50.2677H49.1345V52.9951L49.0057 53.1166L48.6045 53.1534V53.4258H50.4228ZM56.0855 53.4258V53.1166L55.5775 53.0798L55.4524 52.9731V48.7144H56.6044L56.7112 48.8285L56.8143 49.5279H57.2302V48.3684H52.9716V49.5279H53.3838L53.4905 48.8285L53.5973 48.7144H54.7494V52.9731L54.6205 53.0798L54.1163 53.1166V53.4258H56.0855ZM58.5948 53.4258V53.1534L58.0684 53.1166L57.9396 52.9951V50.8419C58.0991 50.653 58.2457 50.5137 58.3794 50.4241C58.5132 50.3346 58.6401 50.2898 58.7604 50.2898C58.8389 50.2898 58.9107 50.3051 58.9757 50.3358C59.0407 50.3665 59.0978 50.4113 59.1469 50.4702H59.3861V49.8223C59.3076 49.788 59.2315 49.7628 59.1579 49.7469C59.0843 49.7309 59.0094 49.723 58.9334 49.723C58.8818 49.723 58.8432 49.7242 58.8174 49.7266C58.7917 49.7291 58.7677 49.734 58.7457 49.7414C58.5984 49.8591 58.458 49.9788 58.3242 50.1002C58.1905 50.2217 58.0623 50.345 57.9396 50.4702V49.7634H57.6525L56.7765 50.0321V50.2677H57.3065V52.9951L57.1777 53.1166L56.7765 53.1534V53.4258H58.5948ZM60.92 53.4994C61.0991 53.4994 61.2887 53.4589 61.4887 53.3779C61.6887 53.297 61.9064 53.1718 62.142 53.0025V53.4258H63.2573V53.1534L62.9039 53.1166L62.7677 52.9951V49.723H62.4806L61.6046 50.0027V50.2383H62.142V52.7927C61.985 52.8688 61.8347 52.9252 61.6911 52.962C61.5476 52.9988 61.4059 53.0172 61.266 53.0172C61.0157 53.0172 60.8317 52.9528 60.7139 52.824C60.5961 52.6952 60.5372 52.4933 60.5372 52.2185V49.723H60.2501L59.3741 50.0027V50.2383H59.9115V52.3473C59.9115 52.7203 59.998 53.0056 60.171 53.2031C60.344 53.4006 60.5936 53.4994 60.92 53.4994ZM64.5114 53.492C64.9531 53.492 65.2985 53.392 65.5476 53.1921C65.7966 52.9921 65.9211 52.7154 65.9211 52.3621C65.9211 52.2271 65.8966 52.1038 65.8475 51.9921C65.7985 51.8805 65.7273 51.7879 65.6341 51.7142C65.5065 51.6087 65.3003 51.4909 65.0157 51.3609C64.9347 51.3241 64.8746 51.2959 64.8353 51.2762C64.585 51.156 64.4157 51.0468 64.3274 50.9486C64.239 50.8505 64.1949 50.7315 64.1949 50.5916C64.1949 50.4198 64.2501 50.2861 64.3605 50.1904C64.4709 50.0947 64.6243 50.0469 64.8206 50.0469C64.9114 50.0469 65.0022 50.0604 65.093 50.0874C65.1838 50.1143 65.2795 50.1548 65.3801 50.2088L65.439 50.7425H65.8107V49.8886C65.6831 49.8346 65.5463 49.7935 65.4003 49.7653C65.2543 49.7371 65.0967 49.723 64.9273 49.723C64.5028 49.723 64.174 49.815 63.9409 49.999C63.7078 50.1831 63.5912 50.4432 63.5912 50.7793C63.5912 51.0002 63.6593 51.1854 63.7955 51.3351C63.9317 51.4848 64.1887 51.6443 64.5666 51.8136C64.9004 51.9658 65.1114 52.0915 65.1997 52.1909C65.2881 52.2903 65.3322 52.416 65.3322 52.5682C65.3322 52.7498 65.2678 52.8964 65.139 53.008C65.0102 53.1197 64.839 53.1755 64.6255 53.1755C64.5176 53.1755 64.4102 53.1608 64.3035 53.1313C64.1967 53.1019 64.0906 53.0565 63.9851 52.9951L63.8931 52.3547H63.5323V53.3338C63.6722 53.3878 63.825 53.4276 63.9906 53.4534C64.1562 53.4792 64.3298 53.492 64.5114 53.492ZM67.4256 53.4479C67.5802 53.4479 67.7409 53.4338 67.9078 53.4055C68.0746 53.3773 68.2439 53.3362 68.4157 53.2822V53.0025C68.3225 53.0246 68.2323 53.0405 68.1452 53.0504C68.0581 53.0602 67.974 53.0651 67.893 53.0651C67.6575 53.0651 67.4943 53.0093 67.4035 52.8976C67.3127 52.786 67.2673 52.5669 67.2673 52.2406V50.253H68.4157V49.8996H67.2673V49.0972H66.9876L66.6637 49.8003L66.1668 50.0174V50.253H66.6416V52.686C66.6416 52.9755 66.6999 53.1749 66.8164 53.2841C66.933 53.3933 67.136 53.4479 67.4256 53.4479ZM70.2036 53.492C70.4465 53.492 70.6882 53.454 70.9287 53.3779C71.1692 53.3019 71.401 53.1902 71.6243 53.043V52.6271C71.3986 52.7768 71.1894 52.8872 70.9968 52.9583C70.8041 53.0295 70.6183 53.0651 70.4391 53.0651C70.0514 53.0651 69.7435 52.927 69.5153 52.651C69.2871 52.3749 69.173 52.0001 69.173 51.5265V51.4419H71.6133C71.6182 51.4124 71.6213 51.3817 71.6225 51.3498C71.6237 51.3179 71.6243 51.2713 71.6243 51.21C71.6243 50.7511 71.5023 50.3886 71.2581 50.1223C71.014 49.8561 70.6833 49.723 70.2661 49.723C69.7557 49.723 69.338 49.9015 69.0129 50.2585C68.6877 50.6155 68.5252 51.0762 68.5252 51.6406C68.5252 52.1903 68.6804 52.6363 68.9908 52.9786C69.3012 53.3209 69.7054 53.492 70.2036 53.492ZM70.9508 51.1253H69.2098C69.2319 50.8186 69.3343 50.5652 69.5171 50.3652C69.6999 50.1653 69.9165 50.0653 70.1668 50.0653C70.422 50.0653 70.6164 50.1462 70.7502 50.3082C70.8839 50.4702 70.9508 50.7033 70.9508 51.0075V51.1253ZM73.4232 53.492C73.6269 53.492 73.822 53.4552 74.0085 53.3816C74.195 53.308 74.3864 53.1927 74.5827 53.0356V53.4258H75.6979V53.1534L75.3372 53.1166L75.2084 52.9951V47.8789H74.925L74.0048 48.1476V48.3832H74.5827V49.8003C74.4624 49.7733 74.3459 49.7524 74.233 49.7377C74.1201 49.723 74.0134 49.7156 73.9128 49.7156C73.3361 49.7156 72.8681 49.9015 72.5086 50.2732C72.1491 50.645 71.9694 51.1302 71.9694 51.729C71.9694 52.2443 72.1062 52.6669 72.3798 52.997C72.6534 53.327 73.0012 53.492 73.4232 53.492ZM73.7619 53.0172C73.4183 53.0172 73.1441 52.8896 72.9392 52.6344C72.7343 52.3792 72.6319 52.0345 72.6319 51.6001C72.6319 51.1339 72.7503 50.7585 72.9871 50.4738C73.2239 50.1892 73.5349 50.0469 73.9201 50.0469C74.006 50.0469 74.1036 50.0573 74.2128 50.0782C74.322 50.099 74.4453 50.1291 74.5827 50.1683V52.7559C74.4404 52.8442 74.3011 52.9099 74.1649 52.9528C74.0287 52.9958 73.8944 53.0172 73.7619 53.0172ZM80.4589 53.5178C80.7092 53.5178 80.9631 53.4951 81.2208 53.4497C81.4784 53.4043 81.7312 53.3387 81.979 53.2528V52.0602H81.5741L81.3901 52.8994L81.2723 53.0172C81.1619 53.0516 81.0521 53.0767 80.9429 53.0927C80.8337 53.1086 80.7251 53.1166 80.6171 53.1166C80.0012 53.1166 79.519 52.9148 79.1706 52.5111C78.8222 52.1075 78.6479 51.5511 78.6479 50.8419C78.6479 50.1745 78.8148 49.6469 79.1485 49.2592C79.4822 48.8715 79.9337 48.6776 80.503 48.6776C80.6454 48.6776 80.7852 48.6936 80.9226 48.7255C81.0601 48.7574 81.2011 48.8065 81.3459 48.8727L81.4453 49.0089L81.5594 49.6935H81.979V48.5341C81.7091 48.4482 81.4496 48.3838 81.2005 48.3408C80.9515 48.2979 80.7141 48.2764 80.4883 48.2764C79.7031 48.2764 79.0706 48.5163 78.5909 48.996C78.1112 49.4757 77.8713 50.1082 77.8713 50.8934C77.8713 51.3842 77.9872 51.8363 78.2191 52.2498C78.451 52.6633 78.7694 52.9853 79.1743 53.216C79.351 53.3141 79.5473 53.389 79.7632 53.4405C79.9791 53.492 80.211 53.5178 80.4589 53.5178ZM83.8 53.4994C83.9791 53.4994 84.1687 53.4589 84.3687 53.3779C84.5687 53.297 84.7864 53.1718 85.022 53.0025V53.4258H86.1373V53.1534L85.7839 53.1166L85.6477 52.9951V49.723H85.3606L84.4846 50.0027V50.2383H85.022V52.7927C84.865 52.8688 84.7147 52.9252 84.5711 52.962C84.4276 52.9988 84.2859 53.0172 84.146 53.0172C83.8957 53.0172 83.7117 52.9528 83.5939 52.824C83.4761 52.6952 83.4172 52.4933 83.4172 52.2185V49.723H83.1301L82.2541 50.0027V50.2383H82.7915V52.3473C82.7915 52.7203 82.878 53.0056 83.051 53.2031C83.224 53.4006 83.4736 53.4994 83.8 53.4994ZM88.1386 53.4258V53.1534L87.6123 53.1166L87.4834 52.9951V50.8419C87.6429 50.653 87.7896 50.5137 87.9233 50.4241C88.057 50.3346 88.184 50.2898 88.3043 50.2898C88.3828 50.2898 88.4545 50.3051 88.5196 50.3358C88.5846 50.3665 88.6417 50.4113 88.6907 50.4702H88.93V49.8223C88.8515 49.788 88.7754 49.7628 88.7018 49.7469C88.6282 49.7309 88.5533 49.723 88.4772 49.723C88.4257 49.723 88.3871 49.7242 88.3613 49.7266C88.3355 49.7291 88.3116 49.734 88.2895 49.7414C88.1423 49.8591 88.0018 49.9788 87.8681 50.1002C87.7343 50.2217 87.6061 50.345 87.4834 50.4702V49.7634H87.1963L86.3203 50.0321V50.2677H86.8504V52.9951L86.7215 53.1166L86.3203 53.1534V53.4258H88.1386ZM90.7657 53.4258V53.1534L90.2393 53.1166L90.1105 52.9951V50.8419C90.27 50.653 90.4166 50.5137 90.5504 50.4241C90.6841 50.3346 90.8111 50.2898 90.9313 50.2898C91.0098 50.2898 91.0816 50.3051 91.1466 50.3358C91.2117 50.3665 91.2687 50.4113 91.3178 50.4702H91.557V49.8223C91.4785 49.788 91.4025 49.7628 91.3288 49.7469C91.2552 49.7309 91.1804 49.723 91.1043 49.723C91.0528 49.723 91.0141 49.7242 90.9884 49.7266C90.9626 49.7291 90.9387 49.734 90.9166 49.7414C90.7694 49.8591 90.6289 49.9788 90.4952 50.1002C90.3614 50.2217 90.2332 50.345 90.1105 50.4702V49.7634H89.8234L88.9474 50.0321V50.2677H89.4774V52.9951L89.3486 53.1166L88.9474 53.1534V53.4258H90.7657ZM92.5094 48.9574C92.6321 48.9574 92.7357 48.9156 92.8204 48.8322C92.9051 48.7488 92.9474 48.647 92.9474 48.5267C92.9474 48.4065 92.9051 48.3034 92.8204 48.2175C92.7357 48.1317 92.6321 48.0887 92.5094 48.0887C92.3891 48.0887 92.2867 48.131 92.202 48.2157C92.1174 48.3004 92.0751 48.404 92.0751 48.5267C92.0751 48.647 92.1174 48.7488 92.202 48.8322C92.2867 48.9156 92.3891 48.9574 92.5094 48.9574ZM93.3081 53.4258V53.1534L92.9032 53.1166L92.7744 52.9951V49.7634H92.4799L91.615 50.0321V50.2677H92.1413V52.9951L92.0125 53.1166L91.615 53.1534V53.4258H93.3081ZM95.1659 53.492C95.4088 53.492 95.6505 53.454 95.891 53.3779C96.1315 53.3019 96.3634 53.1902 96.5867 53.043V52.6271C96.3609 52.7768 96.1517 52.8872 95.9591 52.9583C95.7665 53.0295 95.5806 53.0651 95.4015 53.0651C95.0138 53.0651 94.7058 52.927 94.4776 52.651C94.2494 52.3749 94.1353 52.0001 94.1353 51.5265V51.4419H96.5756C96.5805 51.4124 96.5836 51.3817 96.5848 51.3498C96.586 51.3179 96.5867 51.2713 96.5867 51.21C96.5867 50.7511 96.4646 50.3886 96.2204 50.1223C95.9763 49.8561 95.6456 49.723 95.2285 49.723C94.7181 49.723 94.3003 49.9015 93.9752 50.2585C93.65 50.6155 93.4875 51.0762 93.4875 51.6406C93.4875 52.1903 93.6427 52.6363 93.9531 52.9786C94.2635 53.3209 94.6678 53.492 95.1659 53.492ZM95.9131 51.1253H94.1721C94.1942 50.8186 94.2966 50.5652 94.4794 50.3652C94.6622 50.1653 94.8788 50.0653 95.1291 50.0653C95.3843 50.0653 95.5788 50.1462 95.7125 50.3082C95.8462 50.4702 95.9131 50.7033 95.9131 51.0075V51.1253ZM98.7021 53.4258V53.1534L98.1758 53.1166L98.0469 52.9951V50.8419C98.2064 50.653 98.3531 50.5137 98.4868 50.4241C98.6205 50.3346 98.7475 50.2898 98.8677 50.2898C98.9463 50.2898 99.018 50.3051 99.0831 50.3358C99.1481 50.3665 99.2052 50.4113 99.2542 50.4702H99.4935V49.8223C99.415 49.788 99.3389 49.7628 99.2653 49.7469C99.1917 49.7309 99.1168 49.723 99.0407 49.723C98.9892 49.723 98.9506 49.7242 98.9248 49.7266C98.899 49.7291 98.8751 49.734 98.853 49.7414C98.7058 49.8591 98.5653 49.9788 98.4316 50.1002C98.2978 50.2217 98.1696 50.345 98.0469 50.4702V49.7634H97.7598L96.8838 50.0321V50.2677H97.4139V52.9951L97.285 53.1166L96.8838 53.1534V53.4258H98.7021Z" fill="#04091E"/>
</svg>
