<svg width="132" height="78" viewBox="0 0 132 78" fill="none" xmlns="http://www.w3.org/2000/svg">
<rect x="0.29541" y="0.728271" width="130.992" height="77.0544" fill="white"/>
<path d="M46.3776 42.7187V33.3382C46.3776 32.789 46.3337 31.665 46.2458 29.9661L47.4211 34.0851L50.2111 42.7187H52.5177L55.3077 34.0851C55.3492 33.9558 55.3945 33.8098 55.4435 33.6473L55.5041 33.4443C55.7435 32.6357 56.0624 31.4763 56.461 29.9661C56.3951 31.5771 56.3604 32.4888 56.3567 32.7011C56.353 32.9135 56.3512 33.1259 56.3512 33.3382V42.7187H59.229V27.242H54.9123L52.0674 36.3259L51.3754 38.8083L50.8481 36.7323L50.6065 35.8975L47.8385 27.242H43.4998V42.7187H46.3776ZM65.0312 42.9384C66.774 42.9384 68.0774 42.1585 68.9415 40.5987H69.0074C69.0807 41.3383 69.3022 41.8985 69.672 42.2793C70.0418 42.6601 70.6148 42.8505 71.391 42.8505C71.6107 42.8505 71.8029 42.8432 71.9677 42.8285C72.1324 42.8139 72.288 42.7956 72.4345 42.7736C72.5809 42.7516 72.7274 42.7223 72.8739 42.6857C73.0203 42.6491 73.1851 42.6088 73.3681 42.5649V40.8953C73.1485 40.9392 72.9215 40.9612 72.6871 40.9612C72.3356 40.9612 72.0848 40.8349 71.9347 40.5823C71.7846 40.3296 71.7095 39.8701 71.7095 39.2038V34.876C71.7095 33.514 71.3031 32.4632 70.4903 31.7236C69.6775 30.984 68.5205 30.6142 67.0193 30.6142C65.5328 30.6142 64.3593 30.9126 63.4989 31.5094C62.6385 32.1062 62.1094 32.9831 61.9117 34.1401L65.13 34.2938C65.1959 33.6934 65.3625 33.2632 65.6298 33.0032C65.8971 32.7432 66.3163 32.6133 66.8875 32.6133C67.5026 32.6133 67.9456 32.8018 68.2166 33.179C68.4875 33.5561 68.623 34.1327 68.623 34.909V35.5131L66.0637 35.557C64.5406 35.5717 63.3781 35.9012 62.5762 36.5456C61.7744 37.19 61.3735 38.1273 61.3735 39.3575C61.3735 40.4926 61.6957 41.3731 62.3401 41.9992C62.9845 42.6253 63.8815 42.9384 65.0312 42.9384ZM66.0198 40.7855C65.5877 40.7855 65.2417 40.6482 64.9818 40.3736C64.7218 40.099 64.5918 39.6797 64.5918 39.1159C64.5918 38.6765 64.6705 38.325 64.828 38.0614C64.9854 37.7978 65.2142 37.6019 65.5145 37.4738C65.8147 37.3456 66.3236 37.2669 67.0413 37.2376L68.623 37.2156V37.8198C68.623 38.3397 68.5095 38.8321 68.2825 39.2971C68.0555 39.7621 67.7424 40.1264 67.3433 40.39C66.9443 40.6537 66.5031 40.7855 66.0198 40.7855ZM77.8632 42.7187V36.8861C77.8632 35.6632 78.0774 34.7405 78.5057 34.1181C78.9341 33.4957 79.5327 33.1844 80.3016 33.1844C80.6824 33.1844 81.1218 33.2394 81.6197 33.3492V30.7679C81.3781 30.6581 81.0595 30.6032 80.6641 30.6032C80.1808 30.6032 79.7781 30.6856 79.4559 30.8503C79.1337 31.0151 78.8554 31.2677 78.6211 31.6082C78.3867 31.9487 78.1195 32.5364 77.8192 33.3712H77.7753C77.7753 33.1515 77.757 32.7066 77.7204 32.0366C77.6838 31.3666 77.6545 30.9656 77.6325 30.8338H74.6887C74.7107 31.1707 74.7308 31.557 74.7492 31.9927C74.7675 32.4284 74.7766 32.9721 74.7766 33.6238V42.7187H77.8632ZM86.5541 42.9164C87.528 42.9164 88.3958 42.7919 89.1574 42.5429V40.6317C88.7107 40.7342 88.3665 40.7855 88.1249 40.7855C87.6635 40.7855 87.323 40.6482 87.1033 40.3736C86.8836 40.099 86.7738 39.6724 86.7738 39.0939V32.9208H89.0256V30.8338H86.7738V28.0439H84.8406L83.874 30.8338H82.2154V32.9208H83.7202V39.9287C83.7202 40.9319 83.9655 41.6807 84.4562 42.175C84.9468 42.6693 85.6461 42.9164 86.5541 42.9164ZM94.0698 28.6919V26.4182H90.9832V28.6919H94.0698ZM94.0698 42.7187V30.8338H90.9832V42.7187H94.0698ZM100.3 42.7187V36.3479C100.3 35.3447 100.529 34.5227 100.987 33.8819C101.444 33.2412 102.047 32.9208 102.794 32.9208C104.207 32.9208 104.914 33.9643 104.914 36.0513V42.7187H107.989V35.1726C107.989 33.6787 107.652 32.5437 106.979 31.7675C106.305 30.9913 105.338 30.6032 104.079 30.6032C103.207 30.6032 102.457 30.8082 101.827 31.2183C101.197 31.6284 100.674 32.2874 100.256 33.1954H100.212C100.212 32.9684 100.194 32.5529 100.158 31.9487C100.121 31.3446 100.092 30.973 100.07 30.8338H97.1259C97.1478 31.156 97.168 31.5203 97.1863 31.9268C97.2046 32.3332 97.2138 32.8549 97.2138 33.492V42.7187H100.3ZM116.186 42.9384C118.075 42.9384 119.554 42.391 120.623 41.2962C121.693 40.2015 122.227 38.6912 122.227 36.7653C122.227 34.7808 121.716 33.2595 120.695 32.2014C119.673 31.1432 118.192 30.6142 116.252 30.6142C114.355 30.6142 112.88 31.1615 111.825 32.2563C110.771 33.351 110.243 34.854 110.243 36.7653C110.243 38.6838 110.771 40.1923 111.825 41.2907C112.88 42.3892 114.333 42.9384 116.186 42.9384ZM116.153 40.8294C115.289 40.8294 114.628 40.4834 114.17 39.7914C113.713 39.0994 113.484 38.0907 113.484 36.7653C113.484 34.0778 114.421 32.7341 116.296 32.7341C117.174 32.7341 117.844 33.0526 118.306 33.6897C118.767 34.3268 118.998 35.352 118.998 36.7653C118.998 39.4747 118.05 40.8294 116.153 40.8294Z" fill="#04091E"/>
<path opacity="0.595853" d="M74.0955 52.4105C74.3298 52.4105 74.5469 52.3731 74.7466 52.2982C74.9464 52.2233 75.1145 52.1234 75.2508 51.9985C75.3872 51.8737 75.5005 51.7469 75.5908 51.6182C75.6811 51.4895 75.755 51.3561 75.8126 51.2178L75.1327 51.0046C75.0482 51.2158 74.9128 51.3945 74.7265 51.5404C74.5402 51.6864 74.326 51.7594 74.084 51.7594C73.7114 51.7594 73.4137 51.6038 73.1909 51.2927C72.9681 50.9815 72.8567 50.559 72.8567 50.025C72.8567 49.4987 72.9671 49.079 73.188 48.766C73.4089 48.4529 73.7075 48.2963 74.084 48.2963C74.4797 48.2963 74.8004 48.5172 75.0463 48.959L75.6974 48.7458C75.563 48.4346 75.3584 48.1734 75.0837 47.9621C74.8091 47.7509 74.4797 47.6452 74.0955 47.6452C73.5001 47.6452 73.0142 47.8594 72.6377 48.2877C72.2612 48.716 72.073 49.2951 72.073 50.025C72.073 50.7664 72.2641 51.3493 72.6463 51.7738C73.0286 52.1983 73.5116 52.4105 74.0955 52.4105ZM77.6854 52.4105C77.9158 52.4105 78.1223 52.3721 78.3048 52.2953C78.4873 52.2185 78.6342 52.1195 78.7456 51.9985C78.857 51.8775 78.9492 51.7373 79.0222 51.5779C79.0952 51.4185 79.1461 51.2619 79.1749 51.1083C79.2037 50.9546 79.2181 50.801 79.2181 50.6473C79.2181 50.1518 79.0875 49.733 78.8263 49.3912C78.565 49.0493 78.1847 48.8783 77.6854 48.8783C77.1821 48.8783 76.7999 49.0493 76.5387 49.3912C76.2775 49.733 76.1469 50.1518 76.1469 50.6473C76.1469 50.8087 76.1613 50.9671 76.1901 51.1227C76.2189 51.2783 76.2707 51.4358 76.3456 51.5952C76.4206 51.7546 76.5147 51.8929 76.628 52.0101C76.7413 52.1272 76.8892 52.2233 77.0717 52.2982C77.2542 52.3731 77.4587 52.4105 77.6854 52.4105ZM77.6854 51.7882C77.4741 51.7882 77.2897 51.6941 77.1322 51.5059C76.9747 51.3176 76.8959 51.0315 76.8959 50.6473C76.8959 50.2555 76.9756 49.9664 77.1351 49.7801C77.2945 49.5938 77.4779 49.5006 77.6854 49.5006C77.8928 49.5006 78.0753 49.5938 78.2328 49.7801C78.3903 49.9664 78.469 50.2555 78.469 50.6473C78.469 51.0315 78.3903 51.3176 78.2328 51.5059C78.0753 51.6941 77.8928 51.7882 77.6854 51.7882ZM80.6068 52.3068V47.5991H79.8807V52.3068H80.6068ZM82.8079 52.4105C83.0384 52.4105 83.2449 52.3721 83.4274 52.2953C83.6098 52.2185 83.7568 52.1195 83.8682 51.9985C83.9796 51.8775 84.0718 51.7373 84.1448 51.5779C84.2177 51.4185 84.2686 51.2619 84.2974 51.1083C84.3263 50.9546 84.3407 50.801 84.3407 50.6473C84.3407 50.1518 84.2101 49.733 83.9488 49.3912C83.6876 49.0493 83.3073 48.8783 82.8079 48.8783C82.3047 48.8783 81.9225 49.0493 81.6613 49.3912C81.4 49.733 81.2694 50.1518 81.2694 50.6473C81.2694 50.8087 81.2838 50.9671 81.3126 51.1227C81.3415 51.2783 81.3933 51.4358 81.4682 51.5952C81.5431 51.7546 81.6372 51.8929 81.7506 52.0101C81.8639 52.1272 82.0118 52.2233 82.1943 52.2982C82.3767 52.3731 82.5813 52.4105 82.8079 52.4105ZM82.8079 51.7882C82.5966 51.7882 82.4123 51.6941 82.2548 51.5059C82.0973 51.3176 82.0185 51.0315 82.0185 50.6473C82.0185 50.2555 82.0982 49.9664 82.2576 49.7801C82.4171 49.5938 82.6005 49.5006 82.8079 49.5006C83.0154 49.5006 83.1978 49.5938 83.3553 49.7801C83.5128 49.9664 83.5916 50.2555 83.5916 50.6473C83.5916 51.0315 83.5128 51.3176 83.3553 51.5059C83.1978 51.6941 83.0154 51.7882 82.8079 51.7882ZM85.6717 52.3068V50.6127C85.6717 50.2901 85.738 50.0317 85.8705 49.8377C86.0031 49.6437 86.1942 49.5467 86.4439 49.5467C86.586 49.5467 86.73 49.5698 86.876 49.6159V48.9532C86.7646 48.9033 86.6206 48.8783 86.4439 48.8783C86.2556 48.8783 86.0933 48.9244 85.957 49.0166C85.8206 49.1088 85.7159 49.2164 85.6429 49.3393V48.982H84.9399V52.3068H85.6717ZM88.4491 52.4105C88.8678 52.4105 89.1915 52.3155 89.42 52.1253C89.6486 51.9352 89.7629 51.7037 89.7629 51.431C89.7629 50.9892 89.421 50.6588 88.7372 50.4399C88.718 50.4322 88.6873 50.4226 88.645 50.4111C88.4837 50.3573 88.3588 50.3131 88.2705 50.2785C88.1821 50.244 88.0966 50.1892 88.0141 50.1143C87.9315 50.0394 87.8902 49.9539 87.8902 49.8579C87.8902 49.7426 87.9372 49.6495 88.0313 49.5784C88.1255 49.5074 88.2609 49.4718 88.4376 49.4718C88.7603 49.4718 89.0349 49.6274 89.2616 49.9386L89.7456 49.6447C89.6265 49.4219 89.446 49.2385 89.2039 49.0944C88.9619 48.9504 88.7046 48.8783 88.4318 48.8783C88.0669 48.8783 87.7615 48.9667 87.5156 49.1434C87.2698 49.3201 87.1468 49.5544 87.1468 49.8464C87.1468 49.9962 87.1737 50.1278 87.2275 50.2411C87.2813 50.3544 87.36 50.4485 87.4638 50.5234C87.5675 50.5983 87.6664 50.6579 87.7605 50.7021C87.8546 50.7462 87.9708 50.7914 88.1091 50.8375C88.1245 50.8413 88.1495 50.849 88.184 50.8605C88.3761 50.922 88.5202 50.971 88.6162 51.0074C88.7122 51.0439 88.8035 51.0987 88.8899 51.1717C88.9763 51.2447 89.0196 51.3292 89.0196 51.4252C89.0196 51.5443 88.9667 51.6394 88.8611 51.7104C88.7554 51.7815 88.6124 51.817 88.4318 51.817C88.063 51.817 87.7634 51.648 87.5329 51.31L87.0086 51.6154C87.143 51.8612 87.336 52.0552 87.5876 52.1973C87.8393 52.3395 88.1264 52.4105 88.4491 52.4105ZM93.1222 52.4105C93.3527 52.4105 93.5592 52.3721 93.7417 52.2953C93.9241 52.2185 94.0711 52.1195 94.1825 51.9985C94.2939 51.8775 94.3861 51.7373 94.459 51.5779C94.532 51.4185 94.5829 51.2619 94.6117 51.1083C94.6405 50.9546 94.655 50.801 94.655 50.6473C94.655 50.1518 94.5243 49.733 94.2631 49.3912C94.0019 49.0493 93.6216 48.8783 93.1222 48.8783C92.619 48.8783 92.2368 49.0493 91.9755 49.3912C91.7143 49.733 91.5837 50.1518 91.5837 50.6473C91.5837 50.8087 91.5981 50.9671 91.6269 51.1227C91.6557 51.2783 91.7076 51.4358 91.7825 51.5952C91.8574 51.7546 91.9515 51.8929 92.0649 52.0101C92.1782 52.1272 92.3261 52.2233 92.5085 52.2982C92.691 52.3731 92.8956 52.4105 93.1222 52.4105ZM93.1222 51.7882C92.9109 51.7882 92.7265 51.6941 92.569 51.5059C92.4115 51.3176 92.3328 51.0315 92.3328 50.6473C92.3328 50.2555 92.4125 49.9664 92.5719 49.7801C92.7313 49.5938 92.9148 49.5006 93.1222 49.5006C93.3297 49.5006 93.5121 49.5938 93.6696 49.7801C93.8271 49.9664 93.9059 50.2555 93.9059 50.6473C93.9059 51.0315 93.8271 51.3176 93.6696 51.5059C93.5121 51.6941 93.3297 51.7882 93.1222 51.7882ZM96.2396 52.3068V49.6044H96.931V48.982H96.2396V48.6766C96.2396 48.5153 96.2674 48.3981 96.3231 48.3252C96.3788 48.2522 96.4662 48.2157 96.5853 48.2157H97.0059V47.5991H96.4816C96.1704 47.5991 95.9294 47.6846 95.7584 47.8555C95.5875 48.0265 95.502 48.2829 95.502 48.6248V48.982H94.9949V49.6044H95.502V52.3068H96.2396ZM99.0573 53.6667C99.3454 53.6667 99.5864 53.5975 99.7804 53.4593C99.9744 53.321 100.133 53.0828 100.256 52.7447L101.633 48.982H100.838L100.313 50.6934C100.19 51.1352 100.119 51.3906 100.1 51.4598H100.077C100.027 51.2639 99.9542 51.0084 99.8582 50.6934L99.2877 48.982H98.4868L99.7314 52.2261L99.6219 52.5546C99.5566 52.739 99.4693 52.8686 99.3598 52.9435C99.2503 53.0184 99.1091 53.0559 98.9363 53.0559H98.8325V53.6667H99.0573ZM103.419 52.4105C103.65 52.4105 103.856 52.3721 104.039 52.2953C104.221 52.2185 104.368 52.1195 104.479 51.9985C104.591 51.8775 104.683 51.7373 104.756 51.5779C104.829 51.4185 104.88 51.2619 104.909 51.1083C104.938 50.9546 104.952 50.801 104.952 50.6473C104.952 50.1518 104.821 49.733 104.56 49.3912C104.299 49.0493 103.919 48.8783 103.419 48.8783C102.916 48.8783 102.534 49.0493 102.273 49.3912C102.011 49.733 101.881 50.1518 101.881 50.6473C101.881 50.8087 101.895 50.9671 101.924 51.1227C101.953 51.2783 102.005 51.4358 102.08 51.5952C102.154 51.7546 102.249 51.8929 102.362 52.0101C102.475 52.1272 102.623 52.2233 102.806 52.2982C102.988 52.3731 103.193 52.4105 103.419 52.4105ZM103.419 51.7882C103.208 51.7882 103.024 51.6941 102.866 51.5059C102.709 51.3176 102.63 51.0315 102.63 50.6473C102.63 50.2555 102.71 49.9664 102.869 49.7801C103.028 49.5938 103.212 49.5006 103.419 49.5006C103.627 49.5006 103.809 49.5938 103.967 49.7801C104.124 49.9664 104.203 50.2555 104.203 50.6473C104.203 51.0315 104.124 51.3176 103.967 51.5059C103.809 51.6941 103.627 51.7882 103.419 51.7882ZM106.629 52.4105C106.855 52.4105 107.045 52.3587 107.196 52.255C107.348 52.1512 107.451 52.0398 107.505 51.9208H107.51V52.3068H108.213V48.982H107.487V50.8432C107.487 51.1006 107.426 51.3224 107.303 51.5088C107.18 51.6951 107.009 51.7882 106.79 51.7882C106.425 51.7882 106.243 51.5289 106.243 51.0103V48.982H105.511V51.1025C105.511 51.3522 105.545 51.5673 105.615 51.7479C105.684 51.9284 105.776 52.0638 105.891 52.1541C106.006 52.2444 106.125 52.3097 106.246 52.35C106.367 52.3904 106.494 52.4105 106.629 52.4105ZM109.74 52.3068V50.6127C109.74 50.2901 109.807 50.0317 109.939 49.8377C110.072 49.6437 110.263 49.5467 110.512 49.5467C110.655 49.5467 110.799 49.5698 110.945 49.6159V48.9532C110.833 48.9033 110.689 48.8783 110.512 48.8783C110.324 48.8783 110.162 48.9244 110.026 49.0166C109.889 49.1088 109.785 49.2164 109.712 49.3393V48.982H109.009V52.3068H109.74ZM113.555 52.3068V47.5991H112.829V52.3068H113.555ZM115.232 48.4865V47.6856H114.448V48.4865H115.232ZM115.203 52.3068V48.982H114.483V52.3068H115.203ZM117.053 52.3068V49.6044H117.744V48.982H117.053V48.6766C117.053 48.5153 117.08 48.3981 117.136 48.3252C117.192 48.2522 117.279 48.2157 117.398 48.2157H117.819V47.5991H117.295C116.983 47.5991 116.742 47.6846 116.571 47.8555C116.4 48.0265 116.315 48.2829 116.315 48.6248V48.982H115.808V49.6044H116.315V52.3068H117.053ZM119.605 52.4105C119.966 52.4105 120.268 52.3279 120.51 52.1628C120.752 51.9976 120.927 51.7921 121.034 51.5462L120.423 51.3388C120.35 51.4809 120.244 51.5971 120.104 51.6874C119.963 51.7777 119.801 51.8228 119.617 51.8228C119.352 51.8228 119.143 51.7316 118.991 51.5491C118.84 51.3666 118.764 51.1486 118.764 50.8951H121.069C121.08 50.799 121.086 50.7011 121.086 50.6012C121.086 50.0903 120.944 49.6754 120.66 49.3566C120.375 49.0377 120.014 48.8783 119.576 48.8783C119.131 48.8783 118.761 49.0368 118.467 49.3537C118.173 49.6706 118.026 50.0961 118.026 50.63C118.026 51.1717 118.173 51.6038 118.467 51.9265C118.761 52.2492 119.14 52.4105 119.605 52.4105ZM120.343 50.3823H118.775C118.779 50.1364 118.853 49.9222 118.997 49.7398C119.141 49.5573 119.334 49.4661 119.576 49.4661C119.818 49.4661 120.007 49.5554 120.141 49.734C120.275 49.9126 120.343 50.1287 120.343 50.3823Z" fill="#04091E"/>
<path d="M16.1798 29.1082L16.1798 52.0568C16.1797 52.2765 16.0666 52.4797 15.8824 52.5911C15.6982 52.7024 15.4705 52.7054 15.2836 52.5989L9.85253 49.4978C9.66083 49.3885 9.54186 49.181 9.54175 48.9557L9.54175 26.007C9.54186 25.7874 9.65496 25.5842 9.83912 25.4728C10.0233 25.3614 10.251 25.3584 10.4379 25.4649L15.869 28.5661C16.0607 28.6754 16.1797 28.8829 16.1798 29.1082Z" fill="#04091E"/>
<path d="M25.0291 29.1082L25.0291 52.0568C25.029 52.2765 24.9159 52.4797 24.7318 52.5911C24.5476 52.7024 24.3199 52.7054 24.133 52.5989L18.7019 49.4978C18.5102 49.3885 18.3912 49.181 18.3911 48.9557L18.3911 26.007C18.3912 25.7874 18.5043 25.5842 18.6885 25.4728C18.8726 25.3614 19.1004 25.3584 19.2872 25.4649L24.7184 28.5661C24.9101 28.6754 25.029 28.8829 25.0291 29.1082Z" fill="#04091E"/>
<path d="M33.878 29.1082V52.0568C33.8779 52.2765 33.7648 52.4797 33.5806 52.5911C33.3965 52.7024 33.1687 52.7054 32.9819 52.5989L27.5508 49.4978C27.3591 49.3885 27.2401 49.181 27.24 48.9557L27.24 26.007C27.2401 25.7874 27.3532 25.5842 27.5374 25.4728C27.7215 25.3614 27.9493 25.3584 28.1361 25.4649L33.5672 28.5661C33.7589 28.6754 33.8779 28.8829 33.878 29.1082Z" fill="#04091E"/>
</svg>
