<svg width="132" height="78" viewBox="0 0 132 78" fill="none" xmlns="http://www.w3.org/2000/svg">
<rect x="0.0236816" y="0.728271" width="130.992" height="77.0544" fill="white"/>
<path d="M50.8143 43.2807V36.4072H52.4028C53.595 36.4072 54.6108 35.9809 55.45 35.1284C56.2892 34.2759 56.7088 33.2501 56.7088 32.0513V29.4038C56.7088 28.1583 56.3391 27.1326 55.5998 26.3267C54.8072 25.4808 53.7416 25.0579 52.4028 25.0579H48.0769V43.2807H50.8143ZM52.4728 33.6897H50.8143V27.8652H52.4728C52.9523 27.8652 53.3336 28.0101 53.6167 28.2998C53.8998 28.5895 54.0413 28.9742 54.0413 29.4537V32.1112C54.0413 32.5441 53.8898 32.9155 53.5867 33.2252C53.2837 33.5349 52.9124 33.6897 52.4728 33.6897ZM61.0726 43.2807L61.7419 39.0946H64.6092L65.2586 43.2807H68.1359L65.0888 25.0579H61.3023L58.2153 43.2807H61.0726ZM64.1996 36.4172H62.1615L63.1806 29.2339L64.1996 36.4172ZM74.268 43.2807V36.4072H75.8565C77.0487 36.4072 78.0645 35.9809 78.9037 35.1284C79.7429 34.2759 80.1625 33.2501 80.1625 32.0513V29.4038C80.1625 28.1583 79.7928 27.1326 79.0535 26.3267C78.2609 25.4808 77.1953 25.0579 75.8565 25.0579H71.5306V43.2807H74.268ZM75.9265 33.6897H74.268V27.8652H75.9265C76.406 27.8652 76.7873 28.0101 77.0704 28.2998C77.3535 28.5895 77.495 28.9742 77.495 29.4537V32.1112C77.495 32.5441 77.3435 32.9155 77.0404 33.2252C76.7374 33.5349 76.3661 33.6897 75.9265 33.6897ZM91.2499 43.2807V40.5333H86.1747V35.548H89.8812V32.7906H86.1747V27.8053H91.2499V25.0579H83.4373V43.2807H91.2499ZM96.9625 43.2807V36.4072H98.541C98.6276 36.4072 98.7108 36.4038 98.7907 36.3972L100.469 43.2807H103.436L101.398 35.3182C102.377 34.4324 102.867 33.3434 102.867 32.0513V29.4038C102.867 28.0917 102.551 27.066 101.918 26.3267C101.205 25.4808 100.083 25.0579 98.551 25.0579H94.225V43.2807H96.9625ZM98.6209 33.6897H96.9625V27.8652H98.6209C99.6666 27.8652 100.189 28.3947 100.189 29.4537V32.1112C100.189 32.5441 100.038 32.9155 99.7348 33.2252C99.4318 33.5349 99.0605 33.6897 98.6209 33.6897ZM114.724 43.2807V40.5533H109.668L114.724 27.8053V25.0579H106.711V27.8053H111.776L106.711 40.5533V43.2807H114.724Z" fill="#04091E"/>
<path d="M50.1057 52.6152V52.2146H48.122V48.2086H47.6375V52.6152H50.1057ZM51.9342 52.7186C52.253 52.7186 52.5286 52.6551 52.7613 52.528C52.9939 52.4009 53.1812 52.2254 53.3234 52.0014L52.9745 51.7688C52.8711 51.9411 52.7343 52.0757 52.5642 52.1726C52.394 52.2695 52.1797 52.318 51.9213 52.318C51.6025 52.318 51.3505 52.2081 51.1653 51.9885C50.9801 51.7688 50.8789 51.5039 50.8616 51.1937H53.3492C53.3535 51.1507 53.3557 51.0882 53.3557 51.0063C53.3557 50.7221 53.2932 50.4647 53.1683 50.2342C53.0434 50.0038 52.8711 49.8218 52.6514 49.6882C52.4317 49.5547 52.1862 49.4879 51.9148 49.4879C51.6262 49.4879 51.3688 49.5569 51.1427 49.6947C50.9166 49.8325 50.7399 50.0242 50.6129 50.2698C50.4858 50.5153 50.4223 50.7931 50.4223 51.1033C50.4223 51.4134 50.4869 51.6912 50.6161 51.9368C50.7453 52.1823 50.9241 52.374 51.1524 52.5118C51.3807 52.6497 51.6413 52.7186 51.9342 52.7186ZM52.9163 50.8319H50.8875C50.9349 50.5605 51.0479 50.3355 51.2267 50.1567C51.4055 49.9779 51.6348 49.8885 51.9148 49.8885C52.2034 49.8885 52.4317 49.9672 52.5997 50.1244C52.7677 50.2816 52.8732 50.5174 52.9163 50.8319ZM55.3199 52.7186C55.5353 52.7186 55.7334 52.6701 55.9144 52.5732C56.0953 52.4763 56.2482 52.3417 56.3731 52.1694V52.6152H56.8125V49.5913H56.3731V50.0436C56.2482 49.867 56.0942 49.7302 55.9111 49.6333C55.7281 49.5364 55.5267 49.4879 55.307 49.4879C55.0184 49.4879 54.761 49.5569 54.5349 49.6947C54.3087 49.8325 54.1321 50.0232 54.005 50.2665C53.878 50.5099 53.8144 50.7867 53.8144 51.0968C53.8144 51.4113 53.8791 51.6912 54.0083 51.9368C54.1375 52.1823 54.3163 52.374 54.5446 52.5118C54.7729 52.6497 55.0313 52.7186 55.3199 52.7186ZM55.307 52.318C55.1045 52.318 54.9236 52.2663 54.7642 52.1629C54.6049 52.0595 54.48 51.9152 54.3895 51.73C54.299 51.5448 54.2538 51.3337 54.2538 51.0968C54.2538 50.8642 54.299 50.6564 54.3895 50.4733C54.48 50.2902 54.6049 50.147 54.7642 50.0436C54.9236 49.9402 55.1045 49.8885 55.307 49.8885C55.5138 49.8885 55.6979 49.9402 55.8594 50.0436C56.021 50.147 56.147 50.2913 56.2374 50.4765C56.3279 50.6617 56.3731 50.8707 56.3731 51.1033C56.3731 51.3359 56.3279 51.5448 56.2374 51.73C56.147 51.9152 56.021 52.0595 55.8594 52.1629C55.6979 52.2663 55.5138 52.318 55.307 52.318ZM58.9447 52.7186C59.1601 52.7186 59.3582 52.6701 59.5391 52.5732C59.7201 52.4763 59.873 52.3417 59.9979 52.1694V52.6152H60.4373V47.9243H59.9979V50.0436C59.873 49.867 59.719 49.7302 59.5359 49.6333C59.3528 49.5364 59.1515 49.4879 58.9318 49.4879C58.6432 49.4879 58.3858 49.5569 58.1597 49.6947C57.9335 49.8325 57.7569 50.0232 57.6298 50.2665C57.5028 50.5099 57.4392 50.7867 57.4392 51.0968C57.4392 51.4113 57.5038 51.6912 57.6331 51.9368C57.7623 52.1823 57.941 52.374 58.1693 52.5118C58.3976 52.6497 58.6561 52.7186 58.9447 52.7186ZM58.9318 52.318C58.7293 52.318 58.5484 52.2663 58.389 52.1629C58.2297 52.0595 58.1047 51.9152 58.0143 51.73C57.9238 51.5448 57.8786 51.3337 57.8786 51.0968C57.8786 50.8642 57.9238 50.6564 58.0143 50.4733C58.1047 50.2902 58.2297 50.147 58.389 50.0436C58.5484 49.9402 58.7293 49.8885 58.9318 49.8885C59.1385 49.8885 59.3227 49.9402 59.4842 50.0436C59.6458 50.147 59.7717 50.2913 59.8622 50.4765C59.9527 50.6617 59.9979 50.8707 59.9979 51.1033C59.9979 51.3359 59.9527 51.5448 59.8622 51.73C59.7717 51.9152 59.6458 52.0595 59.4842 52.1629C59.3227 52.2663 59.1385 52.318 58.9318 52.318ZM61.7101 49.0034C61.8049 49.0034 61.8867 48.9689 61.9557 48.9C62.0246 48.8311 62.059 48.7492 62.059 48.6544C62.059 48.5554 62.0246 48.4725 61.9557 48.4057C61.8867 48.3389 61.8049 48.3055 61.7101 48.3055C61.6111 48.3055 61.5281 48.3389 61.4614 48.4057C61.3946 48.4725 61.3612 48.5532 61.3612 48.648C61.3612 48.7471 61.3946 48.8311 61.4614 48.9C61.5281 48.9689 61.6111 49.0034 61.7101 49.0034ZM61.9298 52.6152V49.5913H61.4904V52.6152H61.9298ZM63.4224 52.6152V51.1033C63.4224 50.7328 63.4999 50.4378 63.655 50.2181C63.81 49.9984 64.0427 49.8885 64.3528 49.8885C64.8869 49.8885 65.154 50.1879 65.154 50.7867V52.6152H65.5934V50.5928C65.5934 50.3645 65.5406 50.1664 65.4351 49.9984C65.3295 49.8304 65.1874 49.7033 65.0086 49.6172C64.8299 49.531 64.6349 49.4879 64.4239 49.4879C64.1999 49.4879 64.0028 49.5407 63.8327 49.6462C63.6625 49.7518 63.5257 49.9015 63.4224 50.0953V49.5913H62.983V52.6152H63.4224ZM67.9323 53.9075C68.1908 53.9075 68.4213 53.8472 68.6237 53.7266C68.8262 53.6059 68.9834 53.439 69.0954 53.2258C69.2074 53.0126 69.2634 52.7703 69.2634 52.4989V49.5913H68.824V50.0436C68.6991 49.867 68.5451 49.7302 68.362 49.6333C68.179 49.5364 67.9776 49.4879 67.7579 49.4879C67.4693 49.4879 67.2119 49.5569 66.9858 49.6947C66.7596 49.8325 66.583 50.0232 66.4559 50.2665C66.3289 50.5099 66.2653 50.7867 66.2653 51.0968C66.2653 51.4113 66.3299 51.6912 66.4592 51.9368C66.5884 52.1823 66.7672 52.374 66.9955 52.5118C67.2238 52.6497 67.4822 52.7186 67.7708 52.7186C67.9862 52.7186 68.1843 52.6701 68.3653 52.5732C68.5462 52.4763 68.6991 52.3417 68.824 52.1694V52.4989C68.824 52.7918 68.7411 53.033 68.5752 53.2226C68.4094 53.4121 68.1951 53.5069 67.9323 53.5069H66.6789V53.9075H67.9323ZM67.7579 52.318C67.5554 52.318 67.3745 52.2663 67.2151 52.1629C67.0558 52.0595 66.9308 51.9152 66.8404 51.73C66.7499 51.5448 66.7047 51.3337 66.7047 51.0968C66.7047 50.8642 66.7499 50.6564 66.8404 50.4733C66.9308 50.2902 67.0558 50.147 67.2151 50.0436C67.3745 49.9402 67.5554 49.8885 67.7579 49.8885C67.9647 49.8885 68.1488 49.9402 68.3103 50.0436C68.4719 50.147 68.5979 50.2913 68.6883 50.4765C68.7788 50.6617 68.824 50.8707 68.824 51.1033C68.824 51.3359 68.7788 51.5448 68.6883 51.73C68.5979 51.9152 68.4719 52.0595 68.3103 52.1629C68.1488 52.2663 67.9647 52.318 67.7579 52.318ZM72.1128 52.6152V50.9288H73.0497C73.4589 50.9288 73.7873 50.8082 74.035 50.567C74.2827 50.3258 74.4066 49.9941 74.4066 49.5719C74.4066 49.1455 74.2881 48.8117 74.0512 48.5704C73.8143 48.3292 73.4977 48.2086 73.1014 48.2086H71.6282V52.6152H72.1128ZM73.0368 50.5282H72.1128V48.6092H73.0368C73.3254 48.6092 73.5451 48.6911 73.6958 48.8547C73.8466 49.0184 73.922 49.2575 73.922 49.5719C73.922 49.8864 73.8466 50.1244 73.6958 50.2859C73.5451 50.4474 73.3254 50.5282 73.0368 50.5282ZM76.2932 52.7186C76.5086 52.7186 76.7068 52.6701 76.8877 52.5732C77.0686 52.4763 77.2215 52.3417 77.3464 52.1694V52.6152H77.7858V49.5913H77.3464V50.0436C77.2215 49.867 77.0675 49.7302 76.8845 49.6333C76.7014 49.5364 76.5 49.4879 76.2803 49.4879C75.9917 49.4879 75.7343 49.5569 75.5082 49.6947C75.2821 49.8325 75.1054 50.0232 74.9784 50.2665C74.8513 50.5099 74.7878 50.7867 74.7878 51.0968C74.7878 51.4113 74.8524 51.6912 74.9816 51.9368C75.1108 52.1823 75.2896 52.374 75.5179 52.5118C75.7462 52.6497 76.0046 52.7186 76.2932 52.7186ZM76.2803 52.318C76.0779 52.318 75.897 52.2663 75.7376 52.1629C75.5782 52.0595 75.4533 51.9152 75.3628 51.73C75.2724 51.5448 75.2271 51.3337 75.2271 51.0968C75.2271 50.8642 75.2724 50.6564 75.3628 50.4733C75.4533 50.2902 75.5782 50.147 75.7376 50.0436C75.897 49.9402 76.0779 49.8885 76.2803 49.8885C76.4871 49.8885 76.6712 49.9402 76.8328 50.0436C76.9943 50.147 77.1203 50.2913 77.2108 50.4765C77.3012 50.6617 77.3464 50.8707 77.3464 51.1033C77.3464 51.3359 77.3012 51.5448 77.2108 51.73C77.1203 51.9152 76.9943 52.0595 76.8328 52.1629C76.6712 52.2663 76.4871 52.318 76.2803 52.318ZM79.0458 53.9075V52.1629C79.1707 52.3395 79.3247 52.4763 79.5077 52.5732C79.6908 52.6701 79.8922 52.7186 80.1119 52.7186C80.4005 52.7186 80.6578 52.6497 80.884 52.5118C81.1101 52.374 81.2867 52.1834 81.4138 51.94C81.5409 51.6966 81.6044 51.4199 81.6044 51.1097C81.6044 50.7953 81.5398 50.5153 81.4106 50.2698C81.2814 50.0242 81.1026 49.8325 80.8743 49.6947C80.646 49.5569 80.3876 49.4879 80.0989 49.4879C79.8836 49.4879 79.6854 49.5364 79.5045 49.6333C79.3236 49.7302 79.1707 49.8649 79.0458 50.0372V49.5913H78.6064V53.9075H79.0458ZM80.1119 52.318C79.9051 52.318 79.721 52.2663 79.5594 52.1629C79.3979 52.0595 79.2719 51.9152 79.1814 51.73C79.091 51.5448 79.0458 51.3359 79.0458 51.1033C79.0458 50.8707 79.091 50.6617 79.1814 50.4765C79.2719 50.2913 79.3979 50.147 79.5594 50.0436C79.721 49.9402 79.9051 49.8885 80.1119 49.8885C80.3143 49.8885 80.4952 49.9402 80.6546 50.0436C80.814 50.147 80.9389 50.2913 81.0294 50.4765C81.1198 50.6617 81.1651 50.8728 81.1651 51.1097C81.1651 51.3423 81.1198 51.5502 81.0294 51.7332C80.9389 51.9163 80.814 52.0595 80.6546 52.1629C80.4952 52.2663 80.3143 52.318 80.1119 52.318ZM83.5493 52.7186C83.868 52.7186 84.1437 52.6551 84.3763 52.528C84.6089 52.4009 84.7963 52.2254 84.9384 52.0014L84.5895 51.7688C84.4862 51.9411 84.3494 52.0757 84.1792 52.1726C84.0091 52.2695 83.7948 52.318 83.5363 52.318C83.2176 52.318 82.9656 52.2081 82.7804 51.9885C82.5952 51.7688 82.4939 51.5039 82.4767 51.1937H84.9643C84.9686 51.1507 84.9708 51.0882 84.9708 51.0063C84.9708 50.7221 84.9083 50.4647 84.7834 50.2342C84.6585 50.0038 84.4862 49.8218 84.2665 49.6882C84.0468 49.5547 83.8013 49.4879 83.5299 49.4879C83.2413 49.4879 82.9839 49.5569 82.7578 49.6947C82.5316 49.8325 82.355 50.0242 82.2279 50.2698C82.1009 50.5153 82.0373 50.7931 82.0373 51.1033C82.0373 51.4134 82.1019 51.6912 82.2312 51.9368C82.3604 52.1823 82.5392 52.374 82.7675 52.5118C82.9958 52.6497 83.2564 52.7186 83.5493 52.7186ZM84.5314 50.8319H82.5025C82.5499 50.5605 82.663 50.3355 82.8418 50.1567C83.0205 49.9779 83.2499 49.8885 83.5299 49.8885C83.8185 49.8885 84.0468 49.9672 84.2148 50.1244C84.3828 50.2816 84.4883 50.5174 84.5314 50.8319ZM86.0562 52.6152V51.1679C86.0562 50.9008 86.1047 50.6693 86.2016 50.4733C86.2985 50.2773 86.4267 50.1276 86.5861 50.0242C86.7454 49.9209 86.9178 49.8692 87.103 49.8692C87.2107 49.8692 87.3097 49.8907 87.4002 49.9338V49.5332C87.3054 49.503 87.2064 49.4879 87.103 49.4879C86.879 49.4879 86.6776 49.5504 86.4988 49.6753C86.3201 49.8002 86.1726 49.9747 86.0562 50.1987V49.5913H85.6169V52.6152H86.0562ZM90.9927 52.7186C91.3459 52.7186 91.6506 52.6303 91.9069 52.4537C92.1632 52.2771 92.3689 52.0208 92.524 51.6848L92.1169 51.4393C91.9705 51.7279 91.8122 51.94 91.642 52.0757C91.4719 52.2114 91.2339 52.2792 90.9281 52.2792C90.6825 52.2792 90.4672 52.2049 90.2819 52.0563C90.0967 51.9077 89.9546 51.6934 89.8555 51.4134C89.7564 51.1334 89.7069 50.8017 89.7069 50.4184C89.7069 49.8325 89.8156 49.3749 90.0332 49.0453C90.2507 48.7158 90.5511 48.5511 90.9345 48.5511C91.2016 48.5511 91.4277 48.606 91.6129 48.7158C91.7982 48.8257 91.9597 49.0077 92.0975 49.2618L92.4852 49.0357C92.3388 48.7427 92.1352 48.5155 91.8746 48.354C91.614 48.1925 91.3007 48.1117 90.9345 48.1117C90.577 48.1117 90.2679 48.2032 90.0073 48.3863C89.7467 48.5694 89.5464 48.8343 89.4064 49.181C89.2664 49.5278 89.1964 49.9424 89.1964 50.4248C89.1964 50.903 89.2686 51.3133 89.4129 51.6557C89.5572 51.9982 89.764 52.2609 90.0332 52.444C90.3024 52.6271 90.6222 52.7186 90.9927 52.7186ZM94.4753 52.7186C94.7639 52.7186 95.0213 52.6497 95.2474 52.5118C95.4736 52.374 95.6502 52.1823 95.7773 51.9368C95.9043 51.6912 95.9679 51.4134 95.9679 51.1033C95.9679 50.7931 95.9032 50.5153 95.774 50.2698C95.6448 50.0242 95.466 49.8325 95.2377 49.6947C95.0094 49.5569 94.751 49.4879 94.4624 49.4879C94.1738 49.4879 93.9164 49.5569 93.6903 49.6947C93.4641 49.8325 93.2875 50.0232 93.1604 50.2665C93.0334 50.5099 92.9698 50.7867 92.9698 51.0968C92.9698 51.4069 93.0344 51.6859 93.1637 51.9335C93.2929 52.1812 93.4716 52.374 93.7 52.5118C93.9282 52.6497 94.1867 52.7186 94.4753 52.7186ZM94.4624 52.318C94.2599 52.318 94.079 52.2663 93.9196 52.1629C93.7603 52.0595 93.6353 51.9152 93.5449 51.73C93.4544 51.5448 93.4092 51.3337 93.4092 51.0968C93.4092 50.8642 93.4544 50.6564 93.5449 50.4733C93.6353 50.2902 93.7603 50.147 93.9196 50.0436C94.079 49.9402 94.2599 49.8885 94.4624 49.8885C94.6691 49.8885 94.8533 49.9402 95.0148 50.0436C95.1763 50.147 95.3023 50.2913 95.3928 50.4765C95.4833 50.6617 95.5285 50.8707 95.5285 51.1033C95.5285 51.3359 95.4833 51.5448 95.3928 51.73C95.3023 51.9152 95.1763 52.0595 95.0148 52.1629C94.8533 52.2663 94.6691 52.318 94.4624 52.318ZM97.0275 52.6152V51.1033C97.0275 50.7328 97.0932 50.4378 97.2246 50.2181C97.356 49.9984 97.553 49.8885 97.8158 49.8885C98.0096 49.8885 98.1669 49.9585 98.2875 50.0985C98.4081 50.2385 98.4684 50.4679 98.4684 50.7867V52.6152H98.9077V50.9094C98.9293 50.595 99.0057 50.3462 99.1371 50.1632C99.2685 49.9801 99.4526 49.8885 99.6896 49.8885C99.8834 49.8885 100.041 49.9585 100.161 50.0985C100.282 50.2385 100.342 50.4679 100.342 50.7867V52.6152H100.782V50.5928C100.782 50.2482 100.689 49.9779 100.504 49.7819C100.318 49.5859 100.086 49.4879 99.8059 49.4879C99.5905 49.4879 99.401 49.5483 99.2373 49.6689C99.0736 49.7895 98.9444 49.9575 98.8496 50.1728C98.785 49.9532 98.6708 49.7841 98.5071 49.6656C98.3435 49.5472 98.1518 49.4879 97.9321 49.4879C97.7339 49.4879 97.5584 49.5375 97.4055 49.6366C97.2526 49.7356 97.1266 49.8778 97.0275 50.063V49.5913H96.5881V52.6152H97.0275ZM102.009 53.9075V52.1629C102.134 52.3395 102.288 52.4763 102.471 52.5732C102.654 52.6701 102.856 52.7186 103.075 52.7186C103.364 52.7186 103.621 52.6497 103.847 52.5118C104.074 52.374 104.25 52.1834 104.377 51.94C104.504 51.6966 104.568 51.4199 104.568 51.1097C104.568 50.7953 104.503 50.5153 104.374 50.2698C104.245 50.0242 104.066 49.8325 103.838 49.6947C103.609 49.5569 103.351 49.4879 103.062 49.4879C102.847 49.4879 102.649 49.5364 102.468 49.6333C102.287 49.7302 102.134 49.8649 102.009 50.0372V49.5913H101.57V53.9075H102.009ZM103.075 52.318C102.869 52.318 102.684 52.2663 102.523 52.1629C102.361 52.0595 102.235 51.9152 102.145 51.73C102.054 51.5448 102.009 51.3359 102.009 51.1033C102.009 50.8707 102.054 50.6617 102.145 50.4765C102.235 50.2913 102.361 50.147 102.523 50.0436C102.684 49.9402 102.869 49.8885 103.075 49.8885C103.278 49.8885 103.459 49.9402 103.618 50.0436C103.777 50.147 103.902 50.2913 103.993 50.4765C104.083 50.6617 104.128 50.8728 104.128 51.1097C104.128 51.3423 104.083 51.5502 103.993 51.7332C103.902 51.9163 103.777 52.0595 103.618 52.1629C103.459 52.2663 103.278 52.318 103.075 52.318ZM106.506 52.7186C106.722 52.7186 106.92 52.6701 107.101 52.5732C107.282 52.4763 107.434 52.3417 107.559 52.1694V52.6152H107.999V49.5913H107.559V50.0436C107.434 49.867 107.28 49.7302 107.097 49.6333C106.914 49.5364 106.713 49.4879 106.493 49.4879C106.205 49.4879 105.947 49.5569 105.721 49.6947C105.495 49.8325 105.318 50.0232 105.191 50.2665C105.064 50.5099 105.001 50.7867 105.001 51.0968C105.001 51.4113 105.065 51.6912 105.195 51.9368C105.324 52.1823 105.503 52.374 105.731 52.5118C105.959 52.6497 106.218 52.7186 106.506 52.7186ZM106.493 52.318C106.291 52.318 106.11 52.2663 105.951 52.1629C105.791 52.0595 105.666 51.9152 105.576 51.73C105.485 51.5448 105.44 51.3337 105.44 51.0968C105.44 50.8642 105.485 50.6564 105.576 50.4733C105.666 50.2902 105.791 50.147 105.951 50.0436C106.11 49.9402 106.291 49.8885 106.493 49.8885C106.7 49.8885 106.884 49.9402 107.046 50.0436C107.207 50.147 107.333 50.2913 107.424 50.4765C107.514 50.6617 107.559 50.8707 107.559 51.1033C107.559 51.3359 107.514 51.5448 107.424 51.73C107.333 51.9152 107.207 52.0595 107.046 52.1629C106.884 52.2663 106.7 52.318 106.493 52.318ZM109.252 52.6152V51.1033C109.252 50.7328 109.33 50.4378 109.485 50.2181C109.64 49.9984 109.873 49.8885 110.183 49.8885C110.717 49.8885 110.984 50.1879 110.984 50.7867V52.6152H111.423V50.5928C111.423 50.3645 111.37 50.1664 111.265 49.9984C111.159 49.8304 111.017 49.7033 110.839 49.6172C110.66 49.531 110.465 49.4879 110.254 49.4879C110.03 49.4879 109.833 49.5407 109.663 49.6462C109.492 49.7518 109.356 49.9015 109.252 50.0953V49.5913H108.813V52.6152H109.252ZM113.142 53.9075L114.777 49.5913H114.363L113.4 52.0983L112.399 49.5913H111.94L113.181 52.6734L112.703 53.9075H113.142Z" fill="#04091E"/>
<path fill-rule="evenodd" clip-rule="evenodd" d="M32.4106 29.2808V50.2435C30.7519 51.265 28.7772 52.1065 26.5952 52.6588C24.7936 53.1154 23.0232 53.3311 21.3683 53.3311C19.7727 53.3311 18.2847 53.1308 16.9753 52.7511V31.7885C16.976 31.7885 16.9773 31.7891 16.978 31.7891C17.4655 31.9301 17.9777 32.0466 18.5114 32.1372C19.0053 32.2211 19.5175 32.2828 20.0449 32.3208C20.4763 32.353 20.9179 32.3691 21.3683 32.3691C23.0239 32.3691 24.7936 32.1527 26.5952 31.6966C28.7772 31.1436 30.7519 30.3028 32.4106 29.2808ZM29.3434 34.0932C29.2137 34.1373 29.0834 34.1805 28.9524 34.2228L29.3433 34.2226L29.3434 34.0932Z" fill="#04091E"/>
<path fill-rule="evenodd" clip-rule="evenodd" d="M38.1547 24.6152V47.7681C36.303 48.8963 34.0987 49.8257 31.663 50.4357C29.6519 50.9401 27.6756 51.1783 25.8283 51.1783C24.0472 51.1783 22.3861 50.9571 20.9246 50.5376V27.385C20.9253 27.385 20.9267 27.3856 20.9275 27.3856C21.4717 27.5414 22.0434 27.6701 22.6393 27.7701C23.1906 27.8628 23.7623 27.931 24.3511 27.9729C24.8326 28.0085 25.3256 28.0262 25.8283 28.0262C27.6764 28.0262 29.6519 27.7872 31.663 27.2835C34.0987 26.6727 36.303 25.744 38.1547 24.6152Z" fill="#04091E"/>
</svg>
