<svg width="132" height="78" viewBox="0 0 132 78" fill="none" xmlns="http://www.w3.org/2000/svg">
<rect x="0.931152" y="0.728271" width="130.992" height="77.0544" fill="white"/>
<path d="M48.7889 43.6843C52.1541 43.6843 54.3886 42.1228 54.3886 39.4306C54.3886 36.7287 52.1683 35.8832 50.0368 35.2473L49.7914 35.1747C47.9149 34.6243 46.1774 34.1884 46.1774 32.727C46.1774 31.5694 47.1197 30.8425 48.7619 30.8425C50.1888 30.8425 51.2118 31.4348 51.6695 32.7001L53.8502 31.8386C53.231 29.9541 51.3734 28.9041 48.7889 28.9041C45.6659 28.9041 43.6468 30.4118 43.6468 32.8617C43.6468 37.7345 51.8041 36.2 51.8041 39.6191C51.8041 40.9383 50.6465 41.6921 48.8696 41.6921C46.9043 41.6921 45.5851 40.8306 45.1275 39.3768L42.9468 40.2383C43.7006 42.4997 45.8544 43.6843 48.7889 43.6843ZM69.7521 48.2072V29.2003H67.6253V31.8386C66.4946 30.0079 64.61 28.9041 62.2409 28.9041C58.2026 28.9041 55.3219 32.0809 55.3219 36.3077C55.3219 40.5344 58.2834 43.6843 62.2947 43.6843C64.5293 43.6843 66.333 42.6882 67.4638 41.0459V48.2072H69.7521ZM62.564 41.6652C59.7102 41.6652 57.5834 39.3768 57.5834 36.3077C57.5834 33.2116 59.7102 30.9233 62.564 30.9233C65.4985 30.9233 67.5445 33.1578 67.5445 36.3077C67.5445 39.4576 65.5254 41.6652 62.564 41.6652ZM78.1428 43.6843C80.2427 43.6843 81.9388 42.6882 82.8811 41.369V43.3882H85.0618V29.2003H82.7734V38.1114C82.7465 39.9152 81.1312 41.6382 78.7351 41.6382C76.3121 41.6652 74.7776 40.0768 74.7776 37.6807V29.2003H72.4892V37.9499C72.4892 41.3152 74.5084 43.6843 78.1428 43.6843ZM94.0717 43.6843C96.4677 43.6843 98.3254 42.5536 99.4022 40.669V43.3882H101.529V29.2003H99.4022V31.9463C98.3254 30.1156 96.4677 29.0387 94.0717 29.0387C90.0603 29.0387 87.0989 32.0809 87.0989 36.2808C87.0989 40.5344 90.0334 43.6843 94.0717 43.6843ZM94.3409 41.6652C91.4872 41.6652 89.3603 39.3768 89.3603 36.2808C89.3603 33.2386 91.4872 30.9233 94.3409 30.9233C97.3023 30.9233 99.3215 33.1309 99.3215 36.2808C99.3215 39.4576 97.2754 41.6652 94.3409 41.6652ZM106.743 43.3882V34.827C106.743 32.8078 108.547 31.0579 111.131 31.031V28.9041C109.139 28.9041 107.524 29.9541 106.608 31.2733V29.2003H104.455V43.3882H106.743ZM118.257 43.7112C121.622 43.7112 123.587 42.2574 124.637 40.2383L122.645 39.0268C121.945 40.669 120.653 41.5575 118.337 41.5575C115.726 41.5575 113.653 39.7806 113.249 37.1423H125.041C125.068 36.873 125.095 36.3884 125.095 35.9846C125.095 32.2424 122.376 28.8772 118.095 28.8772C114.084 28.8772 110.934 32.1886 110.934 36.3077C110.934 40.5344 113.895 43.7112 118.257 43.7112ZM122.753 35.15H113.276C113.707 32.4578 115.78 30.8694 118.176 30.8694C120.545 30.8694 122.403 32.4847 122.753 35.15Z" fill="#04091E"/>
<path d="M75.8534 52.0518C75.927 52.0518 76.0049 52.047 76.0869 52.0376C76.1689 52.0281 76.2583 52.0139 76.355 51.995V51.7489H76.2983C76.0311 51.7489 75.8408 51.7168 75.7272 51.6527C75.6136 51.5885 75.5243 51.4681 75.459 51.2914C75.4296 51.2178 75.3896 51.069 75.3392 50.845C75.2887 50.621 75.2277 50.4512 75.1562 50.3355C75.0931 50.2303 75.0068 50.1425 74.8975 50.0721C74.7881 50.0016 74.6524 49.9443 74.4905 49.9001C74.8375 49.8244 75.0983 49.6966 75.2729 49.5168C75.4475 49.337 75.5348 49.1072 75.5348 48.8274C75.5348 48.4341 75.4075 48.1423 75.153 47.952C74.8985 47.7616 74.5073 47.6664 73.9794 47.6664H72.3325V47.9251L72.6985 47.963L72.8089 48.0545V51.6132L72.6985 51.7047L72.3325 51.7363V52.0013H73.869V51.7363L73.4998 51.7047L73.3894 51.6132V50.0768L73.4115 50.0736C73.5503 50.0673 73.6513 50.0642 73.7144 50.0642C74.0109 50.0642 74.2323 50.1147 74.3785 50.2156C74.5247 50.3166 74.6409 50.4985 74.7271 50.7614C74.7502 50.8308 74.7807 50.936 74.8186 51.0769C74.9196 51.4681 75.0468 51.731 75.2003 51.8656C75.274 51.9287 75.3639 51.9755 75.4701 52.006C75.5763 52.0365 75.7041 52.0518 75.8534 52.0518ZM73.7459 49.7708C73.6912 49.7708 73.6345 49.7702 73.5756 49.7692C73.5167 49.7681 73.4546 49.7666 73.3894 49.7645V47.963H73.7018C74.1203 47.963 74.4232 48.0356 74.6104 48.1807C74.7976 48.3258 74.8912 48.5593 74.8912 48.8811C74.8912 49.1924 74.8002 49.4185 74.6183 49.5594C74.4363 49.7003 74.1455 49.7708 73.7459 49.7708ZM77.5247 52.0581C77.7329 52.0581 77.9401 52.0255 78.1462 51.9603C78.3523 51.8951 78.5511 51.7994 78.7425 51.6732V51.3167C78.549 51.445 78.3697 51.5396 78.2046 51.6006C78.0395 51.6616 77.8801 51.6921 77.7266 51.6921C77.3943 51.6921 77.1303 51.5738 76.9347 51.3372C76.7391 51.1006 76.6413 50.7793 76.6413 50.3734V50.3008H78.733C78.7372 50.2756 78.7399 50.2493 78.7409 50.2219C78.742 50.1946 78.7425 50.1546 78.7425 50.102C78.7425 49.7087 78.6378 49.398 78.4286 49.1698C78.2193 48.9415 77.9359 48.8274 77.5783 48.8274C77.1408 48.8274 76.7827 48.9805 76.5041 49.2865C76.2254 49.5925 76.086 49.9874 76.086 50.4712C76.086 50.9423 76.2191 51.3246 76.4851 51.618C76.7512 51.9114 77.0977 52.0581 77.5247 52.0581ZM78.1651 50.0295H76.6729C76.6918 49.7666 76.7796 49.5494 76.9363 49.378C77.093 49.2066 77.2786 49.1209 77.4931 49.1209C77.7119 49.1209 77.8786 49.1903 77.9932 49.3291C78.1078 49.4679 78.1651 49.6677 78.1651 49.9285V50.0295ZM79.9027 52.0455C80.0541 52.0455 80.2166 52.0113 80.3901 51.9429C80.5636 51.8746 80.7545 51.7689 80.9627 51.6259L81.0479 52.0013H81.9565V51.7678L81.6158 51.7363L81.5054 51.6322V49.7581C81.5054 49.4321 81.4286 49.1955 81.275 49.0483C81.1215 48.9011 80.8754 48.8274 80.5368 48.8274C80.1519 48.8274 79.838 48.8969 79.5951 49.0357C79.3521 49.1745 79.2307 49.3491 79.2307 49.5594C79.2307 49.6351 79.2449 49.6872 79.2732 49.7156C79.3016 49.7439 79.3548 49.7581 79.4326 49.7581H79.8774V49.2155C79.9637 49.1818 80.0467 49.1566 80.1267 49.1398C80.2066 49.123 80.2876 49.1145 80.3696 49.1145C80.5883 49.1145 80.7419 49.1671 80.8302 49.2723C80.9185 49.3775 80.9627 49.5657 80.9627 49.837V50.0421C80.1572 50.2356 79.6413 50.4112 79.4152 50.569C79.1891 50.7267 79.0761 50.9433 79.0761 51.2189C79.0761 51.4671 79.1513 51.6669 79.3016 51.8183C79.452 51.9697 79.6524 52.0455 79.9027 52.0455ZM80.1614 51.6984C80.0036 51.6984 79.8779 51.6506 79.7843 51.5549C79.6908 51.4592 79.644 51.3303 79.644 51.1684C79.644 50.9665 79.7286 50.8035 79.8979 50.6794C80.0672 50.5553 80.4222 50.4186 80.9627 50.2692V51.4082C80.7923 51.5049 80.6414 51.5775 80.51 51.6259C80.3785 51.6742 80.2623 51.6984 80.1614 51.6984ZM83.5584 52.0013V51.7678L83.1892 51.7363L83.0725 51.6322V47.2468H82.8264L82.0377 47.4771V47.6791H82.5362V51.6322L82.4258 51.7363L82.044 51.7678V52.0013H83.5584ZM88.5919 52.0013V50.9476H88.2575L88.1471 51.6006L88.0556 51.7047H86.3236V49.8938H87.3836L87.4751 49.9916L87.5382 50.4585H87.8442V49.0357H87.5382L87.4751 49.5058L87.3836 49.5972H86.3236V47.963H87.819L87.9073 48.0608L87.9988 48.6098H88.3616V47.6664H85.2667V47.9251L85.6326 47.963L85.7431 48.0545V51.6132L85.6326 51.7047L85.2667 51.7363V52.0013H88.5919ZM89.6701 52.0581C90.0487 52.0581 90.3447 51.9724 90.5582 51.801C90.7717 51.6295 90.8784 51.3924 90.8784 51.0895C90.8784 50.9738 90.8574 50.8682 90.8153 50.7725C90.7733 50.6768 90.7123 50.5974 90.6323 50.5343C90.523 50.4438 90.3463 50.3429 90.1023 50.2314C90.0329 50.1998 89.9814 50.1756 89.9477 50.1588C89.7332 50.0558 89.5881 49.9622 89.5123 49.878C89.4366 49.7939 89.3988 49.6919 89.3988 49.572C89.3988 49.4248 89.4461 49.3101 89.5407 49.2281C89.6354 49.1461 89.7668 49.1051 89.9351 49.1051C90.0129 49.1051 90.0907 49.1166 90.1686 49.1398C90.2464 49.1629 90.3284 49.1976 90.4146 49.2439L90.4651 49.7014H90.7838V48.9694C90.6744 48.9231 90.5571 48.8879 90.432 48.8637C90.3069 48.8395 90.1717 48.8274 90.0266 48.8274C89.6627 48.8274 89.3809 48.9063 89.1811 49.0641C88.9813 49.2218 88.8814 49.4448 88.8814 49.7329C88.8814 49.9222 88.9397 50.081 89.0565 50.2093C89.1732 50.3376 89.3935 50.4743 89.7174 50.6194C90.0035 50.7498 90.1843 50.8576 90.2601 50.9428C90.3358 51.028 90.3736 51.1358 90.3736 51.2662C90.3736 51.4218 90.3184 51.5475 90.208 51.6432C90.0976 51.7389 89.9509 51.7868 89.7679 51.7868C89.6753 51.7868 89.5833 51.7741 89.4918 51.7489C89.4003 51.7237 89.3094 51.6848 89.2189 51.6322L89.1401 51.0832H88.8309V51.9224C88.9508 51.9687 89.0817 52.0029 89.2237 52.025C89.3656 52.047 89.5144 52.0581 89.6701 52.0581ZM92.1679 52.0202C92.3005 52.0202 92.4382 52.0081 92.5812 51.9839C92.7243 51.9598 92.8694 51.9245 93.0166 51.8783V51.6385C92.9367 51.6574 92.8594 51.6711 92.7847 51.6795C92.7101 51.6879 92.638 51.6921 92.5686 51.6921C92.3667 51.6921 92.2268 51.6443 92.149 51.5486C92.0712 51.4529 92.0323 51.2651 92.0323 50.9854V49.2818H93.0166V48.9789H92.0323V48.2911H91.7925L91.5149 48.8937L91.089 49.0798V49.2818H91.496V51.3672C91.496 51.6153 91.5459 51.7862 91.6458 51.8798C91.7457 51.9734 91.9198 52.0202 92.1679 52.0202ZM93.9686 52.0455C94.12 52.0455 94.2825 52.0113 94.456 51.9429C94.6295 51.8746 94.8204 51.7689 95.0286 51.6259L95.1138 52.0013H96.0224V51.7678L95.6817 51.7363L95.5713 51.6322V49.7581C95.5713 49.4321 95.4945 49.1955 95.341 49.0483C95.1874 48.9011 94.9413 48.8274 94.6027 48.8274C94.2178 48.8274 93.9039 48.8969 93.661 49.0357C93.418 49.1745 93.2966 49.3491 93.2966 49.5594C93.2966 49.6351 93.3108 49.6872 93.3392 49.7156C93.3676 49.7439 93.4207 49.7581 93.4985 49.7581H93.9433V49.2155C94.0296 49.1818 94.1126 49.1566 94.1926 49.1398C94.2725 49.123 94.3535 49.1145 94.4355 49.1145C94.6542 49.1145 94.8078 49.1671 94.8961 49.2723C94.9845 49.3775 95.0286 49.5657 95.0286 49.837V50.0421C94.2231 50.2356 93.7072 50.4112 93.4811 50.569C93.255 50.7267 93.142 50.9433 93.142 51.2189C93.142 51.4671 93.2172 51.6669 93.3676 51.8183C93.5179 51.9697 93.7183 52.0455 93.9686 52.0455ZM94.2273 51.6984C94.0695 51.6984 93.9439 51.6506 93.8503 51.5549C93.7567 51.4592 93.7099 51.3303 93.7099 51.1684C93.7099 50.9665 93.7945 50.8035 93.9638 50.6794C94.1332 50.5553 94.4881 50.4186 95.0286 50.2692V51.4082C94.8583 51.5049 94.7073 51.5775 94.5759 51.6259C94.4444 51.6742 94.3282 51.6984 94.2273 51.6984ZM97.17 52.0202C97.3025 52.0202 97.4403 52.0081 97.5833 51.9839C97.7263 51.9598 97.8714 51.9245 98.0187 51.8783V51.6385C97.9387 51.6574 97.8614 51.6711 97.7868 51.6795C97.7121 51.6879 97.6401 51.6921 97.5707 51.6921C97.3687 51.6921 97.2289 51.6443 97.151 51.5486C97.0732 51.4529 97.0343 51.2651 97.0343 50.9854V49.2818H98.0187V48.9789H97.0343V48.2911H96.7945L96.5169 48.8937L96.091 49.0798V49.2818H96.498V51.3672C96.498 51.6153 96.5479 51.7862 96.6478 51.8798C96.7477 51.9734 96.9218 52.0202 97.17 52.0202ZM99.5511 52.0581C99.7593 52.0581 99.9665 52.0255 100.173 51.9603C100.379 51.8951 100.578 51.7994 100.769 51.6732V51.3167C100.575 51.445 100.396 51.5396 100.231 51.6006C100.066 51.6616 99.9066 51.6921 99.753 51.6921C99.4207 51.6921 99.1567 51.5738 98.9611 51.3372C98.7655 51.1006 98.6677 50.7793 98.6677 50.3734V50.3008H100.759C100.764 50.2756 100.766 50.2493 100.767 50.2219C100.768 50.1946 100.769 50.1546 100.769 50.102C100.769 49.7087 100.664 49.398 100.455 49.1698C100.246 48.9415 99.9623 48.8274 99.6047 48.8274C99.1673 48.8274 98.8092 48.9805 98.5305 49.2865C98.2518 49.5925 98.1125 49.9874 98.1125 50.4712C98.1125 50.9423 98.2455 51.3246 98.5116 51.618C98.7776 51.9114 99.1241 52.0581 99.5511 52.0581ZM100.192 50.0295H98.6993C98.7182 49.7666 98.806 49.5494 98.9627 49.378C99.1194 49.2066 99.305 49.1209 99.5196 49.1209C99.7383 49.1209 99.905 49.1903 100.02 49.3291C100.134 49.4679 100.192 49.6677 100.192 49.9285V50.0295ZM103.963 52.0802C104.468 52.0802 104.873 51.9608 105.178 51.7221C105.483 51.4834 105.635 51.1694 105.635 50.7803C105.635 50.6394 105.612 50.509 105.564 50.3891C105.517 50.2692 105.446 50.163 105.351 50.0705C105.185 49.9064 104.914 49.7508 104.537 49.6036C104.466 49.5762 104.412 49.5552 104.376 49.5405C103.994 49.3785 103.747 49.2402 103.637 49.1256C103.526 49.011 103.471 48.8664 103.471 48.6918C103.471 48.452 103.55 48.2622 103.708 48.1223C103.865 47.9824 104.079 47.9125 104.348 47.9125C104.462 47.9125 104.567 47.9236 104.664 47.9456C104.76 47.9677 104.85 48.0019 104.932 48.0482L105.026 48.1554L105.124 48.7707H105.462V47.7705C105.272 47.7095 105.087 47.6638 104.905 47.6333C104.723 47.6028 104.542 47.5876 104.361 47.5876C103.911 47.5876 103.549 47.7017 103.277 47.9299C103.005 48.1581 102.868 48.4573 102.868 48.8274C102.868 49.0904 102.94 49.3044 103.083 49.4695C103.226 49.6346 103.518 49.8128 103.96 50.0042C103.996 50.019 104.047 50.041 104.115 50.0705C104.733 50.3334 105.042 50.63 105.042 50.9602C105.042 51.1978 104.954 51.3866 104.779 51.5265C104.603 51.6663 104.365 51.7363 104.064 51.7363C103.921 51.7363 103.789 51.7237 103.667 51.6984C103.545 51.6732 103.436 51.6364 103.342 51.588L103.256 51.4776L103.181 50.7362H102.799V51.8719C102.953 51.9392 103.129 51.9908 103.327 52.0265C103.526 52.0623 103.738 52.0802 103.963 52.0802ZM107.527 52.0581C107.965 52.0581 108.325 51.9072 108.608 51.6054C108.891 51.3035 109.032 50.916 109.032 50.4428C109.032 49.9695 108.891 49.582 108.61 49.2802C108.328 48.9784 107.967 48.8274 107.527 48.8274C107.086 48.8274 106.726 48.9778 106.447 49.2786C106.168 49.5794 106.029 49.9674 106.029 50.4428C106.029 50.9181 106.169 51.3062 106.45 51.6069C106.731 51.9077 107.09 52.0581 107.527 52.0581ZM107.527 51.7805C107.26 51.7805 107.045 51.659 106.881 51.4161C106.717 51.1731 106.635 50.8487 106.635 50.4428C106.635 50.0368 106.716 49.7124 106.879 49.4695C107.042 49.2265 107.258 49.1051 107.527 49.1051C107.797 49.1051 108.014 49.2271 108.179 49.471C108.344 49.715 108.427 50.0389 108.427 50.4428C108.427 50.8508 108.345 51.1758 108.18 51.4176C108.016 51.6595 107.799 51.7805 107.527 51.7805ZM110.751 52.0013V51.7678L110.382 51.7363L110.265 51.6322V47.2468H110.019L109.23 47.4771V47.6791H109.729V51.6322L109.618 51.7363L109.237 51.7678V52.0013H110.751ZM112.157 52.0644C112.311 52.0644 112.473 52.0297 112.645 51.9603C112.816 51.8909 113.003 51.7836 113.205 51.6385V52.0013H114.161V51.7678L113.858 51.7363L113.741 51.6322V48.8274H113.495L112.744 49.0672V49.2691H113.205V51.4587C113.07 51.5239 112.941 51.5722 112.818 51.6038C112.695 51.6353 112.574 51.6511 112.454 51.6511C112.239 51.6511 112.081 51.5959 111.98 51.4855C111.879 51.375 111.829 51.202 111.829 50.9665V48.8274H111.583L110.832 49.0672V49.2691H111.293V51.0769C111.293 51.3966 111.367 51.6411 111.515 51.8104C111.663 51.9797 111.877 52.0644 112.157 52.0644ZM115.365 52.0202C115.497 52.0202 115.635 52.0081 115.778 51.9839C115.921 51.9598 116.066 51.9245 116.214 51.8783V51.6385C116.134 51.6574 116.056 51.6711 115.982 51.6795C115.907 51.6879 115.835 51.6921 115.766 51.6921C115.564 51.6921 115.424 51.6443 115.346 51.5486C115.268 51.4529 115.229 51.2651 115.229 50.9854V49.2818H116.214V48.9789H115.229V48.2911H114.989L114.712 48.8937L114.286 49.0798V49.2818H114.693V51.3672C114.693 51.6153 114.743 51.7862 114.843 51.8798C114.943 51.9734 115.117 52.0202 115.365 52.0202ZM117.061 48.1712C117.167 48.1712 117.255 48.1355 117.328 48.064C117.401 47.9924 117.437 47.9052 117.437 47.8021C117.437 47.699 117.401 47.6107 117.328 47.5371C117.255 47.4635 117.167 47.4267 117.061 47.4267C116.958 47.4267 116.87 47.4629 116.798 47.5355C116.725 47.6081 116.689 47.6969 116.689 47.8021C116.689 47.9052 116.725 47.9924 116.798 48.064C116.87 48.1355 116.958 48.1712 117.061 48.1712ZM117.746 52.0013V51.7678L117.399 51.7363L117.289 51.6322V48.8621H117.036L116.295 49.0925V49.2944H116.746V51.6322L116.635 51.7363L116.295 51.7678V52.0013H117.746ZM119.398 52.0581C119.836 52.0581 120.196 51.9072 120.479 51.6054C120.762 51.3035 120.903 50.916 120.903 50.4428C120.903 49.9695 120.762 49.582 120.48 49.2802C120.199 48.9784 119.838 48.8274 119.398 48.8274C118.957 48.8274 118.596 48.9778 118.318 49.2786C118.039 49.5794 117.9 49.9674 117.9 50.4428C117.9 50.9181 118.04 51.3062 118.321 51.6069C118.602 51.9077 118.961 52.0581 119.398 52.0581ZM119.398 51.7805C119.131 51.7805 118.916 51.659 118.752 51.4161C118.587 51.1731 118.505 50.8487 118.505 50.4428C118.505 50.0368 118.587 49.7124 118.75 49.4695C118.913 49.2265 119.129 49.1051 119.398 49.1051C119.668 49.1051 119.885 49.2271 120.05 49.471C120.215 49.715 120.297 50.0389 120.297 50.4428C120.297 50.8508 120.215 51.1758 120.051 51.4176C119.887 51.6595 119.67 51.7805 119.398 51.7805ZM122.537 52.0013V51.7678L122.227 51.7363L122.117 51.6322V49.4679C122.256 49.3964 122.385 49.3433 122.505 49.3086C122.625 49.2739 122.736 49.2565 122.839 49.2565C123.075 49.2565 123.243 49.307 123.343 49.4079C123.443 49.5089 123.493 49.6803 123.493 49.9222V51.6322L123.382 51.7363L123.073 51.7678V52.0013H124.486V51.7678L124.139 51.7363L124.029 51.6322V49.8118C124.029 49.4921 123.954 49.2481 123.805 49.0798C123.656 48.9116 123.44 48.8274 123.158 48.8274C123.038 48.8274 122.899 48.8564 122.742 48.9142C122.584 48.972 122.376 49.0725 122.117 49.2155V48.8621H121.871L121.12 49.0925V49.2944H121.581V51.6322L121.47 51.7363L121.12 51.7678V52.0013H122.537Z" fill="#04091E"/>
<path fill-rule="evenodd" clip-rule="evenodd" d="M7.86572 26.1562H34.7877V53.0783H7.86572V26.1562ZM27.9029 33.0409L14.7492 33.0395V46.1943L14.7448 46.1984L14.745 46.1994H27.9088L27.9078 33.0362L27.9072 33.0361L27.9029 33.0409Z" fill="#04091E"/>
</svg>
