<svg width="132" height="78" viewBox="0 0 132 78" fill="none" xmlns="http://www.w3.org/2000/svg">
<rect x="0.659424" y="0.728271" width="130.992" height="77.0544" fill="white"/>
<path d="M20.6934 49.1861C21.4754 49.1353 22.039 49.0236 22.3843 48.8509C22.9937 48.5361 23.2984 47.9623 23.2984 47.1295V31.7431C23.2984 30.9408 23.0089 30.3822 22.43 30.0673C22.0949 29.8845 21.516 29.7576 20.6934 29.6865V28.8943H30.2299C34.079 28.8943 37.0141 29.9201 39.0351 31.9716C40.8734 33.8403 41.7925 36.3489 41.7925 39.4972C41.7925 42.3206 40.8683 44.7123 39.0199 46.6725C36.9379 48.8763 34.1145 49.9782 30.5498 49.9782H20.6934V49.1861ZM28.3408 47.099C28.3713 47.7388 28.4881 48.2009 28.6912 48.4853C28.9045 48.7697 29.3514 48.9119 30.0318 48.9119C31.8802 48.9119 33.3985 48.2619 34.5868 46.9619C35.7751 45.6518 36.3692 43.1432 36.3692 39.4363C36.3692 37.2324 36.0493 35.3383 35.4094 33.754C34.3735 31.2048 32.6267 29.9302 30.1689 29.9302C29.3565 29.9302 28.8283 30.1029 28.5846 30.4482C28.4221 30.6716 28.3408 31.1033 28.3408 31.7431V47.099Z" fill="#04091E"/>
<path d="M43.4987 42.8335C43.4987 40.6601 44.1639 38.8472 45.4944 37.3949C46.835 35.9426 48.5158 35.2165 50.5368 35.2165C52.5985 35.2165 54.2844 35.9578 55.5945 37.4406C56.9148 38.9234 57.575 40.721 57.575 42.8335C57.575 44.9155 56.925 46.708 55.625 48.2111C54.325 49.704 52.629 50.4505 50.5368 50.4505C48.5056 50.4505 46.8248 49.7243 45.4944 48.272C44.1639 46.8096 43.4987 44.9967 43.4987 42.8335ZM48.0842 42.8335C48.0842 45.017 48.1959 46.5455 48.4193 47.4189C48.7748 48.7697 49.4806 49.445 50.5368 49.445C51.5423 49.445 52.2024 48.9271 52.5173 47.8912C52.8321 46.8553 52.9895 45.1694 52.9895 42.8335C52.9895 40.5077 52.8219 38.8269 52.4868 37.791C52.1618 36.7449 51.5169 36.2219 50.5521 36.2219C49.4959 36.2219 48.79 36.8973 48.4345 38.248C48.201 39.1519 48.0842 40.6804 48.0842 42.8335Z" fill="#04091E"/>
<path d="M58.9765 49.2318C59.5757 49.1607 59.9921 49.0185 60.2257 48.8052C60.4593 48.5919 60.5862 48.1806 60.6065 47.5713L60.637 46.6572V38.1719C60.637 37.5219 60.5253 37.0801 60.3019 36.8465C60.0784 36.6129 59.6366 36.4555 58.9765 36.3742V35.6125H64.9025V38.0652C65.5627 37.202 66.2178 36.5164 66.8677 36.0086C67.5177 35.5008 68.2693 35.2469 69.1224 35.2469C69.7622 35.2469 70.336 35.4551 70.8438 35.8715C71.3618 36.2778 71.6208 36.877 71.6208 37.6691C71.6208 38.2785 71.4379 38.7812 71.0723 39.1773C70.7169 39.5734 70.2497 39.7714 69.6708 39.7714C69.0107 39.7714 68.4368 39.4617 67.9494 38.8422C67.472 38.2226 67.1369 37.9129 66.9439 37.9129C66.5275 37.9129 66.106 38.1719 65.6795 38.6898C65.2631 39.1976 65.0549 39.9289 65.0549 40.8835V46.7791C65.0549 47.815 65.2021 48.465 65.4967 48.729C65.8014 48.9829 66.4006 49.1505 67.2943 49.2318V49.9782H58.9765V49.2318Z" fill="#04091E"/>
<path d="M72.7024 49.2318C73.3422 49.181 73.7992 49.0388 74.0734 48.8052C74.3578 48.5716 74.5 48.0841 74.5 47.3427V37.1969H72.7024V35.8258H74.5V34.668C74.5 33.2157 74.7285 32.0224 75.1855 31.088C76.0488 29.3412 77.6433 28.4678 79.969 28.4678C81.208 28.4678 82.2541 28.7521 83.1072 29.3209C83.9705 29.8795 84.4021 30.6209 84.4021 31.545C84.4021 32.1239 84.2193 32.5911 83.8537 32.9466C83.4982 33.302 83.0209 33.4798 82.4217 33.4798C81.924 33.4798 81.4975 33.3173 81.142 32.9923C80.7866 32.6673 80.6088 32.2763 80.6088 31.8193C80.6088 31.474 80.7206 31.1134 80.944 30.7376C81.1776 30.3517 81.2944 30.1181 81.2944 30.0369C81.2944 29.783 81.203 29.6205 81.0202 29.5494C80.8373 29.4783 80.6393 29.4428 80.426 29.4428C79.9182 29.4428 79.5272 29.59 79.253 29.8845C78.9788 30.1791 78.8417 30.8138 78.8417 31.7888V35.8258H81.5533V37.1969H78.8417V46.7791C78.8417 47.8556 78.994 48.5158 79.2987 48.7595C79.6135 49.0033 80.3042 49.1607 81.3705 49.2318V49.9782H72.7024V49.2318Z" fill="#04091E"/>
<path d="M89.0485 35.6125V46.2002C89.0485 46.8299 89.1247 47.292 89.277 47.5865C89.5411 48.1045 90.0641 48.3634 90.8461 48.3634C91.3438 48.3634 91.8312 48.206 92.3086 47.8912C92.5828 47.7185 92.9281 47.4291 93.3445 47.0228V38.1719C93.3445 37.5219 93.2125 37.0699 92.9484 36.816C92.6945 36.552 92.1766 36.4047 91.3945 36.3742V35.6125H97.61V46.84C97.61 47.49 97.7319 47.942 97.9756 48.1959C98.2194 48.4396 98.6967 48.5919 99.4076 48.6529V49.3689C97.478 49.5517 96.2593 49.6888 95.7515 49.7802C95.2538 49.8614 94.4515 50.0747 93.3445 50.42V48.3634C92.6031 49.0033 91.9887 49.4552 91.5012 49.7193C90.6481 50.1864 89.7594 50.42 88.8352 50.42C87.8298 50.42 86.8903 50.1001 86.0169 49.4603C85.1537 48.8205 84.722 47.683 84.722 46.0479V38.1719C84.722 37.5117 84.6154 37.0801 84.4021 36.877C84.1888 36.6738 83.7775 36.5063 83.1682 36.3742V35.6125H89.0485Z" fill="#04091E"/>
<path d="M100.824 45.2557H101.693C101.997 46.7486 102.566 47.8048 103.399 48.4244C104.232 49.0337 105.085 49.3384 105.958 49.3384C106.761 49.3384 107.35 49.1607 107.725 48.8052C108.101 48.4396 108.289 47.9623 108.289 47.3732C108.289 46.8146 108.086 46.3373 107.68 45.9412C107.456 45.7279 107.096 45.4994 106.598 45.2557L104.283 44.1284C103.064 43.5292 102.19 42.8792 101.662 42.1784C101.124 41.4776 100.855 40.6499 100.855 39.6953C100.855 38.4867 101.276 37.4457 102.119 36.5723C102.962 35.6887 104.14 35.2469 105.654 35.2469C106.314 35.2469 107.015 35.3586 107.756 35.5821C108.497 35.7953 108.959 35.902 109.142 35.902C109.396 35.902 109.574 35.8512 109.675 35.7496C109.787 35.6379 109.879 35.4856 109.95 35.2926H110.635V39.8019H109.843C109.548 38.7457 109.066 37.8976 108.396 37.2578C107.725 36.618 106.943 36.2981 106.05 36.2981C105.359 36.2981 104.841 36.491 104.496 36.877C104.161 37.2629 103.993 37.6793 103.993 38.1262C103.993 38.4918 104.145 38.8574 104.45 39.223C104.745 39.5988 105.303 39.9847 106.126 40.3808L107.832 41.2034C108.888 41.7112 109.66 42.2038 110.148 42.6811C110.96 43.4936 111.366 44.494 111.366 45.6822C111.366 46.84 110.945 47.9216 110.102 48.9271C109.269 49.9224 108.015 50.42 106.339 50.42C105.923 50.42 105.501 50.3743 105.075 50.2829C104.658 50.2017 104.14 50.0544 103.521 49.8411L102.988 49.6583C102.795 49.5872 102.673 49.5466 102.622 49.5365C102.581 49.5263 102.526 49.5212 102.454 49.5212C102.282 49.5212 102.129 49.5923 101.997 49.7345C101.876 49.8665 101.733 50.095 101.571 50.42H100.824V45.2557Z" fill="#04091E"/>
</svg>
